<svg xmlns="http://www.w3.org/2000/svg" viewBox="0 0 600 400" fill="none">
  <rect width="600" height="400" fill="#f0f6ff"/>
  <rect x="0" y="300" width="600" height="100" fill="#D1E5FF" opacity="0.5"/>
  <!-- Building -->
  <rect x="400" y="100" width="160" height="260" rx="4" fill="#004AAD" opacity="0.15"/>
  <rect x="415" y="115" width="30" height="30" rx="2" fill="#004AAD" opacity="0.4"/>
  <rect x="455" y="115" width="30" height="30" rx="2" fill="#004AAD" opacity="0.4"/>
  <rect x="495" y="115" width="30" height="30" rx="2" fill="#004AAD" opacity="0.4"/>
  <rect x="415" y="160" width="30" height="30" rx="2" fill="#004AAD" opacity="0.4"/>
  <rect x="455" y="160" width="30" height="30" rx="2" fill="#004AAD" opacity="0.4"/>
  <rect x="495" y="160" width="30" height="30" rx="2" fill="#004AAD" opacity="0.4"/>
  <rect x="445" y="250" width="50" height="110" rx="2" fill="#004AAD" opacity="0.3"/>
  <!-- Boxes being moved -->
  <rect x="80" y="240" width="90" height="75" rx="4" fill="#004AAD" opacity="0.7"/>
  <rect x="180" y="260" width="70" height="55" rx="4" fill="#004AAD" opacity="0.5"/>
  <rect x="100" y="170" width="65" height="70" rx="4" fill="#004AAD" opacity="0.5"/>
  <line x1="80" y1="277" x2="170" y2="277" stroke="white" stroke-width="2.5" opacity="0.7"/>
  <line x1="122" y1="240" x2="122" y2="315" stroke="white" stroke-width="2.5" opacity="0.7"/>
</svg>
