<svg width="1479" height="330" xmlns="http://www.w3.org/2000/svg" xmlns:xlink="http://www.w3.org/1999/xlink" overflow="hidden"><defs><clipPath id="clip0"><path d="M1300 837 1738 837 1738 884.57 1529.86 884.57 1524.39 881.231C1505.15 870.747 1483.11 864.791 1459.69 864.791 1384.72 864.791 1323.95 925.774 1323.95 1001 1323.95 1076.23 1384.72 1137.21 1459.69 1137.21 1492.48 1137.21 1522.56 1125.54 1546.03 1106.11L1552.28 1100.4 1738 1100.4 1738 1165 1300 1165Z" fill-rule="evenodd" clip-rule="evenodd"/></clipPath><clipPath id="clip1"><path d="M1300 1071.23 1314.74 1084.38 1315.41 1163 1300 1163ZM1603.03 835 1738 835 1738 1163 1615.8 1163 1615.75 1155.89C1614.54 1131.99 1607.84 1111.29 1579.19 1103.41 1499.09 1139.38 1405.9 1161.04 1329.43 1062.96L1327.24 1060.01 1320.83 1039.78C1302.67 965.488 1347.17 907.409 1403.66 869.323L1421.37 858.247 1432.93 857.394C1472.34 854.446 1509.35 853.195 1544.28 879.068 1603.94 875.813 1610.38 857.869 1603.5 836.253ZM1300 835 1319.89 835 1300 867.913Z" fill-rule="evenodd" clip-rule="evenodd"/></clipPath></defs><g transform="translate(-260 -835)"><path d="M4.48138 17.4063C0.191498 15.2603-1.66352 10.7253-0.349609 5.74495 0.230132 3.59886 2.43308 1.16943 4.75193 0.116685 9.00307-1.78644 13.6021-0.247766 16.0756 3.92282 17.0805 5.66396 17.235 6.31176 17.235 8.82218 17.235 11.3327 17.0805 11.9805 16.0756 13.7217 13.6021 17.8923 8.61661 19.4713 4.48138 17.4063Z" fill="#004AAD" fill-rule="evenodd" transform="matrix(1 0 0 -1 425 885)"/><path d="M5.80606 17.7173C1.9919 16.3793-0.199178 13.5007-0.44267 9.56768-0.686045 6.16192 0.166001 3.89141 2.47888 1.78298 4.66996-0.203682 6.57698-0.852466 9.78259-0.649721 12.8663-0.446976 15.3414 1.05322 17.0051 3.76976 19.4396 7.70266 18.9122 11.9194 15.5849 15.2441 12.5823 18.2039 9.41729 19.0148 5.80606 17.7173Z" fill="#004AAD" fill-rule="evenodd" transform="matrix(1 0 0 -1 305 887)"/><path d="M11.9764 103.28C7.61784 102.057 2.94243 100.793 1.59525 100.385L-0.901058 99.7321-0.901058 49.6075-0.901058-0.517166 9.599-0.517166 20.0991-0.517166 20.0991 52.5032C20.0991 81.6643 20.0594 105.523 20.0198 105.483 19.9405 105.483 16.3349 104.463 11.9764 103.28Z" fill="#004AAD" fill-rule="evenodd" transform="matrix(1 0 0 -1 468 985)"/><path d="M68.7184 134.205C68.1681 134.042 63.6087 132.739 58.6169 131.354L49.4587 128.83 49.4587 79.9284C49.4587 28.706 49.4587 29.0318 47.7686 25.7336 44.8993 20.074 36.8417 17.2645 29.2556 19.2596 24.657 20.4811 21.5911 23.1684 19.901 27.5252 19.0362 29.7239 18.9969 30.294 18.8791 47.2324L18.7612 64.6187 8.73823 64.6187-1.28472 64.6187-1.16673 44.993C-1.00956 25.978-0.970271 25.2451-0.105499 22.2727 1.42736 17.0202 3.66781 13.0706 7.16597 9.40606 13.2976 3.05419 20.6478 0.0817949 31.4175-0.406856 48.0437-1.18044 60.6608 5.21216 66.3994 17.1831 67.8929 20.3183 69.5045 25.8558 69.5045 27.851L69.5045 28.7875 130.546 28.7875C172.957 28.7875 192.295 28.9096 193.906 29.2354 198.191 30.0497 200.785 31.9635 202.514 35.4651 204.637 39.8219 204.676 40.5955 204.715 69.2605L204.715 95.6453 203.654 95.401C203.025 95.2381 198.623 93.9759 193.828 92.6322L185.063 90.1485 185.063 68.609 185.063 47.1102 170.52 47.1102 155.977 47.1102 155.977 68.6497 155.977 90.1485 151.063 91.655C148.391 92.5101 143.831 93.6501 140.962 94.2609 136.324 95.1974 134.791 95.2788 127.284 95.2788 119.462 95.2788 118.558 95.2381 115.059 94.2609 100.438 90.1892 92.3409 79.7656 91.6334 64.008 91.319 56.8417 92.6161 52.2813 95.9571 48.7389L97.5293 47.1102 83.7331 47.1102 69.8975 47.1102 69.8189 90.7999 69.7011 134.53 68.7184 134.205ZM133.101 77.0375 135.931 76.3453 135.931 61.5241 135.931 46.6624 128.384 46.7846C121.152 46.9066 120.68 46.9473 118.636 47.9654 115.885 49.309 113.448 51.8335 112.072 54.7651 111.05 56.9231 110.972 57.4524 110.972 61.9721 110.972 66.5732 111.05 67.021 112.19 69.5047 115.571 76.8746 122.763 79.4805 133.101 77.0375Z" fill="#004AAD" fill-rule="evenodd" transform="matrix(1 0 0 -1 526 1014)"/><path d="M8.60911 102.872C3.37882 101.445-1.29658 100.14-1.77212 100.018L-2.68348 99.8137-2.68348 49.6483-2.68348-0.517166 7.81657-0.517166 18.3166-0.517166 18.3166 52.5032C18.3166 81.6643 18.277 105.523 18.2374 105.483 18.1581 105.483 13.8393 104.3 8.60911 102.872Z" fill="#004AAD" fill-rule="evenodd" transform="matrix(1 0 0 -1 1148 985)"/><path d="M9.42208 103.064C4.88487 101.753 0.781639 100.565 0.229237 100.442L-0.71769 100.196-0.71769 57.063C-0.71769 20.8931-0.599253 13.5198-0.125847 11.144 1.29449 4.18032 4.29303 0.944352 10.369-0.161615 12.105-0.489344 20.785-0.571276 37.553-0.489344L62.2118-0.366446 64.6975 0.821454C68.6035 2.70578 70.8918 6.10561 71.8388 11.5127 72.3122 14.1752 72.4699 66.6071 71.9965 66.6071 71.5231 66.6071 54.3605 61.6917 53.453 61.282L52.5456 60.8725 52.5456 39.3672 52.5456 17.8618 35.7776 17.8618 19.0094 17.8618 19.0094 61.6917C19.0094 103.187 18.97 105.522 18.3387 105.481 17.9442 105.481 13.9198 104.375 9.42208 103.064Z" fill="#004AAD" fill-rule="evenodd" transform="matrix(1 0 0 -1 373 985)"/><path d="M111.761 132.163C107.32 130.858 103.233 129.675 102.644 129.511L101.543 129.267 101.543 88.2649 101.543 47.2633 96.2383 47.2633C88.8897 47.2633 85.628 48.12 82.4842 50.8534 79.812 53.1382 79.2619 54.4845 78.7903 59.3394 78.2795 64.6023 77.6114 67.4173 75.9609 71.5787 72.4635 80.2686 65.1935 86.0211 54.9762 88.1017 51.4788 88.8361 42.8334 88.8361 39.2574 88.1017 28.372 85.9395 20.5126 79.0039 17.133 68.6821 16.1113 65.5406 16.072 65.0919 16.072 56.7283L16.072 48.0792 14.1072 48.0792C11.6708 48.0792 7.66242 47.1 5.73694 46.0801 3.61481 44.9378 1.53208 42.49 0.353215 39.7973-1.5331 35.5951-1.7688 32.5761-1.8082 15.3595L-1.8082-0.470041 7.97681-0.470041 17.8011-0.470041 17.9191 12.7076C18.0369 24.9061 18.0762 25.9669 18.8228 27.4764 19.4123 28.7411 20.0018 29.2307 21.2199 29.6794L22.7919 30.2506 25.3462 28.1291C30.4941 23.8046 36.8996 21.3568 44.5232 20.908 55.0155 20.2551 64.0146 23.1518 69.8306 29.0675 71.4024 30.6587 73.0529 32.4945 73.4459 33.1065L74.2319 34.2488 78.1615 32.1681C83.7418 29.2715 85.9816 28.9043 97.8887 28.9043 103.233 28.9043 108.656 29.0675 109.914 29.3123 114.276 30.0466 117.616 32.6169 119.306 36.4926 121.153 40.8988 121.192 41.5107 121.192 89.5296 121.192 132.163 121.153 134.57 120.524 134.529 120.131 134.529 116.201 133.469 111.761 132.163ZM52.6184 69.2532C55.605 68.1108 57.2555 66.479 58.788 63.256 60.0456 60.6041 60.0849 60.4409 60.0849 55.0148 60.0849 48.6096 59.4561 46.2433 57.0197 43.3467 55.1728 41.1436 52.8542 40.0012 49.514 39.5933 42.5976 38.6957 37.1746 41.4699 35.0133 46.9368 33.913 49.7111 33.4021 54.6884 33.913 58.1155 35.0526 66.1526 39.336 70.0692 46.9989 70.11 49.5532 70.11 51.0072 69.906 52.6184 69.2532Z" fill="#004AAD" fill-rule="evenodd" transform="matrix(1 0 0 -1 769 1014)"/><path d="M8.0292 103.066C3.58992 101.756-0.535061 100.568-1.12438 100.405L-2.18508 100.159-2.18508 57.6613C-2.18508 30.7625-2.02799 14.263-1.79224 12.6253-0.9279 7.09812 1.50779 2.88109 4.92564 1.07973 7.98993-0.557971 9.32565-0.598916 70.8864-0.47608 127.419-0.353243 130.483-0.312298 132.251 0.383657 134.726 1.40717 137.476 4.02745 138.694 6.48406 140.815 10.8647 140.815 10.2916 140.815 59.7493 140.815 90.7013 140.697 105.481 140.422 105.481 140.186 105.481 135.865 104.294 130.797 102.82 125.69 101.346 121.486 100.159 121.369 100.159 121.251 100.159 121.172 81.6532 121.172 59.0124L121.172 17.8658 105.261 17.8658C96.5007 17.8658 89.3507 17.9887 89.3507 18.1115 89.3507 18.2753 91.4721 20.6499 94.0257 23.4339 98.9364 28.6745 103.101 34.1198 104.319 36.9038 106.479 41.8168 104.044 49.1044 98.19 55.1638 90.6079 62.9837 80.1578 67.4874 69.5113 67.4874 64.8757 67.4874 61.6542 66.9551 57.3329 65.4811 44.2507 61.0594 33.9578 50.169 33.9578 40.7114 33.9578 36.6991 37.415 31.2538 45.2721 22.7379L49.7506 17.8658 33.6043 17.8658 17.4578 17.8658 17.4578 61.6736C17.4578 103.148 17.4185 105.481 16.7899 105.44 16.3971 105.399 12.4685 104.335 8.0292 103.066ZM74.9328 50.6602C79.8043 49.3501 84.2436 46.4841 86.365 43.3317 87.7007 41.2845 87.6614 39.9334 86.1293 37.5998 84.5579 35.1842 70.1007 19.9129 69.3935 19.9129 68.5293 19.9129 54.7007 34.6519 52.8935 37.5179 51.0078 40.4248 50.9686 41.1207 52.6578 43.7819 53.7185 45.4606 58.04 48.6132 60.7507 49.6776 65.6221 51.52 70.3364 51.8475 74.9328 50.6602Z" fill="#004AAD" fill-rule="evenodd" transform="matrix(1 0 0 -1 904 985)"/><path d="M8.36628 103.106C3.60085 101.796-0.801006 100.609-1.40681 100.445L-2.49718 100.2-2.49718 49.8405-2.49718-0.51857 8.00282-0.51857 18.5028-0.51857 18.5028 52.5017C18.5028 102.738 18.4625 105.522 17.8163 105.481 17.4125 105.481 13.1721 104.417 8.36628 103.106Z" fill="#004AAD" fill-rule="evenodd" transform="matrix(1 0 0 -1 1059 985)"/><path d="M5.19085 17.801C3.34999 17.0726 1.96939 15.899 0.818937 14.1587-2.21083 9.4642-0.638441 2.98898 4.19374 0.439363 10.3297-2.75783 17.2328 1.65346 17.2711 8.8571 17.3095 15.4133 11.0585 20.0674 5.19085 17.801Z" fill="#004AAD" fill-rule="evenodd" transform="matrix(1 0 0 -1 413 908)"/><path d="M4.72626 17.5574C-0.0206827 15.2924-2.04957 9.95321 0.0176964 5.05903 3.61604-3.43512 15.1387-2.10033 17.0145 7.08138 18.5076 14.4834 11.2341 20.672 4.72626 17.5574Z" fill="#004AAD" fill-rule="evenodd" transform="matrix(1 0 0 -1 437 908)"/><path d="M5.90246 18.053C3.43314 17.0723 1.5425 15.3156 0.462182 13.0275-0.425283 11.0255-0.540995 10.4126-0.34803 8.04295-0.000780336 3.22186 3.31743-0.291812 7.7931-0.577837 10.7641-0.78214 12.6547-0.210208 14.4681 1.50582 19.3297 6.04101 18.3265 14.4166 12.5389 17.5627 11.0342 18.3798 7.40728 18.6658 5.90246 18.053Z" fill="#004AAD" fill-rule="evenodd" transform="matrix(1 0 0 -1 293 910)"/><path d="M5.00074 17.5187C2.69039 16.339 0.380034 13.6134-0.197582 11.376-1.19873 7.51144 0.45702 3.07726 3.69154 0.758528 5.11622-0.258447 5.88641-0.461866 8.15827-0.583917 11.3927-0.787336 13.164-0.0143451 15.3203 2.50781 17.0915 4.58244 17.6691 6.53514 17.4767 9.66744 17.0915 16.0949 10.4685 20.2849 5.00074 17.5187Z" fill="#004AAD" fill-rule="evenodd" transform="matrix(1 0 0 -1 317 910)"/><path d="M5.36534 18.152C-0.89402 16.0009-3.15969 9.26374 0.373229 3.37876 2.52363-0.23333 7.86145-1.69443 11.7399 0.253624 14.0055 1.43071 15.964 4.14984 16.5016 6.99086 17.3464 11.293 15.5032 15.3515 11.7399 17.3808 10.0886 18.2737 6.82453 18.6795 5.36534 18.152Z" fill="#004AAD" fill-rule="evenodd" transform="matrix(1 0 0 -1 636 910)"/><path d="M4.77564 17.911C-1.59487 15.7643-3.47537 6.93458 1.39851 2.03356 5.77344-2.34076 12.8732-1.12566 15.5979 4.46376 19.3204 12.038 12.4895 20.5032 4.77564 17.911Z" fill="#004AAD" fill-rule="evenodd" transform="matrix(1 0 0 -1 660 910)"/><path d="M5.25207 18.1554C-2.83692 15.3622-3.91031 4.3512 3.48853 0.505478 7.85894-1.76145 12.4209-0.506531 15.0277 3.62259 17.9796 8.31839 16.3695 14.8359 11.6542 17.3457 9.96739 18.2769 6.74712 18.6816 5.25207 18.1554Z" fill="#004AAD" fill-rule="evenodd" transform="matrix(1 0 0 -1 712 910)"/><path d="M45.7484 93.4024C41.5775 92.2258 37.2117 90.968 36.1203 90.6434L34.0542 89.9943 34.0542 61.9179C34.0542 31.5693 34.0542 31.5288 31.9493 27.228 29.9223 23.1301 25.1666 19.5597 20.4499 18.6266 16.0841 17.7746 9.61331 18.4237 4.03902 20.209 2.6747 20.6552 1.46636 20.9392 1.38831 20.8581 1.31037 20.7769 0.374811 17.2065-0.638688 12.9464L-2.5097 5.15638 0.374811 3.7769C3.68819 2.15396 9.06754 0.612283 13.7452-0.0775175 18.4229-0.767201 27.1157-0.320976 31.3255 0.774472 39.7454 3.04664 45.9434 8.03708 49.4127 15.3807 51.5956 20.0872 52.6481 24.1851 53.1548 30.3927 53.4277 33.2329 53.5446 46.987 53.4666 65.3259L53.3497 95.5933 45.7484 93.4024Z" fill="#004AAD" fill-rule="evenodd" transform="matrix(1 0 0 -1 1080 1014)"/><path d="M5.08867 57.497 5.08867 48.4473 10.5354 47.9603C19.8897 47.1487 25.3364 45.1602 29.7964 40.8992 34.0985 36.7193 35.993 31.606 36.5062 22.4346L36.7824 17.8489 16.9689 17.8489-2.80513 17.8489-2.80513 8.71805-2.80513-0.453357 20.4027-0.331601C41.4792-0.209846 43.729-0.128676 45.3473 0.520568 49.531 2.22502 51.8202 4.94399 53.3595 9.93549 54.1093 12.4109 54.2278 13.669 54.1883 19.4722 54.1488 34.3656 50.202 45.3631 41.8739 53.6418 34.6511 60.8653 25.4942 64.7611 12.6273 66.1003 10.3776 66.3437 7.77259 66.5466 6.8253 66.5466L5.08867 66.5466 5.08867 57.497Z" fill="#004AAD" fill-rule="evenodd" transform="matrix(1 0 0 -1 1181 985)"/><path d="M88.3489 63.8028 78.8129 61.0619 78.8129 39.4626 78.8129 17.8633 55.7771 18.0269C30.7792 18.1906 30.1906 18.2315 25.9131 20.5223 19.5557 23.9586 17.5935 30.1356 17.5935 46.9896L17.5935 55.0075 12.8059 55.253C10.2158 55.4166 6.13451 55.5394 3.77991 55.5394-0.340598 55.5394-0.458288 55.4985-0.458288 54.6394-0.419058 54.1076-0.262138 49.3623-0.0658747 44.0852 0.444229 30.4629 1.70004 23.9586 5.15342 16.8815 7.46878 12.1363 12.6096 6.85916 17.2011 4.52733 21.0861 2.52291 24.3434 1.41842 28.9741 0.477457 31.7996-0.0951841 36.1948-0.217918 58.5634-0.381564 85.9943-0.586121 88.3882-0.463387 91.4099 1.17295 93.3721 2.19562 95.4519 4.4046 96.4723 6.45005 98.2774 10.1726 98.3952 11.6453 98.5129 39.9126 98.5914 57.5029 98.5129 66.5845 98.2382 66.5436 98.042 66.5436 93.5682 65.3164 88.3489 63.8028Z" fill="#004AAD" fill-rule="evenodd" transform="matrix(1 0 0 -1 262 985)"/><path d="M734.088 1076.93 723.192 1106.69 745.096 1106.69ZM621.942 1076.93 611.045 1106.69 632.949 1106.69ZM489.667 1076.93 478.77 1106.69 500.674 1106.69ZM349.723 1076.93 338.827 1106.69 360.731 1106.69ZM1137.21 1074.7 1137.21 1099 1156.45 1099C1158.23 1099 1159.6 1098.91 1160.56 1098.72 1161.53 1098.54 1162.66 1098.09 1163.95 1097.39 1165.25 1096.68 1166.2 1095.42 1166.79 1093.59 1167.38 1091.77 1167.68 1089.38 1167.68 1086.4 1167.68 1081.8 1166.66 1078.69 1164.62 1077.1 1162.58 1075.5 1159.86 1074.7 1156.45 1074.7ZM396.28 1074.7 396.28 1099 415.516 1099C417.295 1099 418.666 1098.91 419.63 1098.72 420.593 1098.54 421.724 1098.09 423.021 1097.39 424.318 1096.68 425.263 1095.42 425.856 1093.59 426.449 1091.77 426.746 1089.38 426.746 1086.4 426.746 1081.8 425.727 1078.69 423.688 1077.1 421.65 1075.5 418.926 1074.7 415.516 1074.7ZM271.673 1074.7 271.673 1122.19 283.126 1122.19C285.201 1122.19 287.091 1122.06 288.796 1121.8 290.501 1121.54 292.428 1120.91 294.578 1119.9 296.728 1118.9 298.507 1117.56 299.915 1115.89 301.323 1114.22 302.528 1111.8 303.529 1108.64 304.529 1105.49 305.03 1101.79 305.03 1097.55 305.03 1089.6 302.973 1083.8 298.859 1080.16 294.745 1076.52 289.612 1074.7 283.459 1074.7ZM968.51 1074.14C953.982 1074.14 946.717 1081.95 946.717 1097.55 946.717 1114.42 953.982 1122.86 968.51 1122.86 983.039 1122.86 990.303 1114.42 990.303 1097.55 990.303 1081.95 983.039 1074.14 968.51 1074.14ZM1132.32 1065.56 1157.34 1065.56C1162.67 1065.56 1167.34 1067.25 1171.35 1070.63 1175.35 1074.01 1177.35 1079.23 1177.35 1086.29 1177.35 1088.52 1177.07 1090.79 1176.52 1093.09 1175.96 1095.4 1174.76 1097.78 1172.9 1100.23 1171.05 1102.68 1168.6 1104.32 1165.57 1105.13 1167.79 1107.29 1169.51 1109.59 1170.74 1112.04 1171.96 1114.5 1173.24 1117.8 1174.57 1121.97L1175.57 1125.09C1175.72 1125.46 1175.79 1125.98 1175.79 1126.65 1175.79 1127.91 1175.31 1129.01 1174.35 1129.94 1173.39 1130.87 1172.27 1131.33 1171.01 1131.33 1168.72 1131.33 1167.23 1130.29 1166.57 1128.21L1163.9 1119.96C1161.38 1112.08 1157.34 1108.14 1151.78 1108.14L1137.21 1108.14 1137.21 1126.43C1137.21 1127.76 1136.73 1128.92 1135.77 1129.88 1134.8 1130.85 1133.65 1131.33 1132.32 1131.33 1130.99 1131.33 1129.86 1130.85 1128.93 1129.88 1128 1128.92 1127.54 1127.76 1127.54 1126.43L1127.54 1070.46C1127.54 1069.12 1128 1067.97 1128.93 1067.01 1129.86 1066.04 1130.99 1065.56 1132.32 1065.56ZM1076.73 1065.56 1111.19 1065.56C1112.45 1065.56 1113.53 1066 1114.42 1066.9 1115.31 1067.79 1115.75 1068.86 1115.75 1070.13 1115.75 1071.39 1115.31 1072.47 1114.42 1073.36 1113.53 1074.25 1112.45 1074.7 1111.19 1074.7L1081.62 1074.7 1081.62 1095.1 1104.97 1095.1C1106.23 1095.1 1107.3 1095.55 1108.19 1096.44 1109.08 1097.33 1109.53 1098.41 1109.53 1099.67 1109.53 1100.93 1109.08 1102.01 1108.19 1102.9 1107.3 1103.8 1106.23 1104.24 1104.97 1104.24L1081.62 1104.24 1081.62 1122.19 1111.19 1122.19C1112.45 1122.19 1113.53 1122.64 1114.42 1123.53 1115.31 1124.42 1115.75 1125.5 1115.75 1126.76 1115.75 1128.02 1115.31 1129.1 1114.42 1129.99 1113.53 1130.89 1112.45 1131.33 1111.19 1131.33L1076.73 1131.33C1075.39 1131.33 1074.26 1130.85 1073.34 1129.88 1072.41 1128.92 1071.95 1127.76 1071.95 1126.43L1071.95 1070.46C1071.95 1069.12 1072.41 1067.97 1073.34 1067.01 1074.26 1066.04 1075.39 1065.56 1076.73 1065.56ZM1011.49 1065.56C1013.86 1065.56 1015.42 1066.56 1016.16 1068.57L1035.06 1119.96 1053.96 1068.57C1054.71 1066.56 1056.26 1065.56 1058.63 1065.56 1060.04 1065.56 1061.19 1066 1062.08 1066.9 1062.97 1067.79 1063.41 1068.94 1063.41 1070.35 1063.41 1071.02 1063.3 1071.65 1063.08 1072.25L1043.07 1125.98C1042.47 1127.62 1041.46 1128.92 1040.01 1129.88 1038.56 1130.85 1036.92 1131.33 1035.06 1131.33 1033.21 1131.33 1031.56 1130.85 1030.11 1129.88 1028.67 1128.92 1027.65 1127.62 1027.06 1125.98L1007.04 1072.25C1006.82 1071.65 1006.71 1071.02 1006.71 1070.35 1006.71 1068.94 1007.15 1067.79 1008.04 1066.9 1008.93 1066 1010.08 1065.56 1011.49 1065.56ZM868.173 1065.56C869.655 1065.56 870.841 1066.19 871.731 1067.45L894.858 1105.02 917.985 1067.45C918.874 1066.19 920.06 1065.56 921.543 1065.56 922.729 1065.56 923.73 1065.97 924.545 1066.78 925.36 1067.6 925.768 1068.6 925.768 1069.79L925.768 1126.43C925.768 1127.76 925.305 1128.92 924.378 1129.88 923.452 1130.85 922.321 1131.33 920.987 1131.33 919.653 1131.33 918.504 1130.85 917.54 1129.88 916.577 1128.92 916.095 1127.76 916.095 1126.43L916.095 1089.19 901.195 1113.05C899.713 1115.43 897.601 1116.62 894.858 1116.62 892.115 1116.62 890.003 1115.43 888.52 1113.05L873.621 1089.19 873.621 1126.43C873.621 1127.76 873.139 1128.92 872.176 1129.88 871.212 1130.85 870.063 1131.33 868.729 1131.33 867.395 1131.33 866.264 1130.85 865.337 1129.88 864.411 1128.92 863.948 1127.76 863.948 1126.43L863.948 1069.79C863.948 1068.6 864.355 1067.6 865.171 1066.78 865.986 1065.97 866.987 1065.56 868.173 1065.56ZM775.197 1065.56C776.679 1065.56 777.865 1066.19 778.755 1067.45L801.882 1105.02 825.009 1067.45C825.899 1066.19 827.084 1065.56 828.567 1065.56 829.753 1065.56 830.754 1065.97 831.569 1066.78 832.385 1067.6 832.792 1068.6 832.792 1069.79L832.792 1126.43C832.792 1127.76 832.329 1128.92 831.402 1129.88 830.476 1130.85 829.345 1131.33 828.011 1131.33 826.677 1131.33 825.528 1130.85 824.564 1129.88 823.601 1128.92 823.119 1127.76 823.119 1126.43L823.119 1089.19 808.22 1113.05C806.737 1115.43 804.625 1116.62 801.882 1116.62 799.139 1116.62 797.027 1115.43 795.544 1113.05L780.645 1089.19 780.645 1126.43C780.645 1127.76 780.163 1128.92 779.2 1129.88 778.236 1130.85 777.087 1131.33 775.753 1131.33 774.419 1131.33 773.288 1130.85 772.362 1129.88 771.435 1128.92 770.972 1127.76 770.972 1126.43L770.972 1069.79C770.972 1068.6 771.379 1067.6 772.195 1066.78 773.01 1065.97 774.011 1065.56 775.197 1065.56ZM734.088 1065.56C735.941 1065.56 737.609 1066.04 739.092 1067.01 740.574 1067.97 741.612 1069.27 742.205 1070.91L762.219 1124.64C762.441 1125.24 762.552 1125.87 762.552 1126.54 762.552 1127.95 762.107 1129.1 761.218 1129.99 760.328 1130.89 759.179 1131.33 757.771 1131.33 755.399 1131.33 753.842 1130.33 753.101 1128.32L748.542 1115.84 719.745 1115.84 715.186 1128.32C714.445 1130.33 712.888 1131.33 710.516 1131.33 709.108 1131.33 707.959 1130.89 707.069 1129.99 706.18 1129.1 705.735 1127.95 705.735 1126.54 705.735 1125.87 705.846 1125.24 706.069 1124.64L726.083 1070.91C726.676 1069.27 727.695 1067.97 729.14 1067.01 730.586 1066.04 732.235 1065.56 734.088 1065.56ZM663.607 1065.56C664.941 1065.56 666.09 1066.04 667.053 1067.01 668.017 1067.97 668.499 1069.12 668.499 1070.46L668.499 1122.19 695.517 1122.19C696.778 1122.19 697.852 1122.64 698.742 1123.53 699.631 1124.42 700.076 1125.5 700.076 1126.76 700.076 1128.02 699.631 1129.1 698.742 1129.99 697.852 1130.89 696.778 1131.33 695.517 1131.33L663.607 1131.33C662.272 1131.33 661.142 1130.85 660.215 1129.88 659.289 1128.92 658.825 1127.76 658.825 1126.43L658.825 1070.46C658.825 1069.12 659.289 1067.97 660.215 1067.01 661.142 1066.04 662.272 1065.56 663.607 1065.56ZM621.942 1065.56C623.795 1065.56 625.463 1066.04 626.945 1067.01 628.428 1067.97 629.465 1069.27 630.058 1070.91L650.072 1124.64C650.295 1125.24 650.406 1125.87 650.406 1126.54 650.406 1127.95 649.961 1129.1 649.072 1129.99 648.182 1130.89 647.033 1131.33 645.625 1131.33 643.253 1131.33 641.696 1130.33 640.955 1128.32L636.396 1115.84 607.599 1115.84 603.04 1128.32C602.299 1130.33 600.742 1131.33 598.37 1131.33 596.961 1131.33 595.813 1130.89 594.923 1129.99 594.034 1129.1 593.589 1127.95 593.589 1126.54 593.589 1125.87 593.7 1125.24 593.922 1124.64L613.936 1070.91C614.529 1069.27 615.548 1067.97 616.994 1067.01 618.439 1066.04 620.089 1065.56 621.942 1065.56ZM531.331 1065.56C532.666 1065.56 533.815 1066.04 534.778 1067.01 535.742 1067.97 536.224 1069.12 536.224 1070.46L536.224 1122.19 563.242 1122.19C564.502 1122.19 565.577 1122.64 566.467 1123.53 567.356 1124.42 567.801 1125.5 567.801 1126.76 567.801 1128.02 567.356 1129.1 566.467 1129.99 565.577 1130.89 564.502 1131.33 563.242 1131.33L531.331 1131.33C529.997 1131.33 528.867 1130.85 527.94 1129.88 527.014 1128.92 526.55 1127.76 526.55 1126.43L526.55 1070.46C526.55 1069.12 527.014 1067.97 527.94 1067.01 528.867 1066.04 529.997 1065.56 531.331 1065.56ZM489.667 1065.56C491.52 1065.56 493.188 1066.04 494.67 1067.01 496.153 1067.97 497.19 1069.27 497.783 1070.91L517.797 1124.64C518.019 1125.24 518.131 1125.87 518.131 1126.54 518.131 1127.95 517.686 1129.1 516.796 1129.99 515.907 1130.89 514.758 1131.33 513.35 1131.33 510.978 1131.33 509.421 1130.33 508.68 1128.32L504.121 1115.84 475.323 1115.84 470.765 1128.32C470.023 1130.33 468.467 1131.33 466.095 1131.33 464.686 1131.33 463.537 1130.89 462.648 1129.99 461.758 1129.1 461.314 1127.95 461.314 1126.54 461.314 1125.87 461.425 1125.24 461.647 1124.64L481.661 1070.91C482.254 1069.27 483.273 1067.97 484.719 1067.01 486.164 1066.04 487.813 1065.56 489.667 1065.56ZM391.388 1065.56 416.405 1065.56C421.742 1065.56 426.412 1067.25 430.415 1070.63 434.418 1074.01 436.419 1079.23 436.419 1086.29 436.419 1088.52 436.141 1090.79 435.585 1093.09 435.029 1095.4 433.825 1097.78 431.972 1100.23 430.118 1102.68 427.672 1104.32 424.633 1105.13 426.857 1107.29 428.58 1109.59 429.803 1112.04 431.026 1114.5 432.305 1117.8 433.639 1121.97L434.64 1125.09C434.788 1125.46 434.862 1125.98 434.862 1126.65 434.862 1127.91 434.381 1129.01 433.417 1129.94 432.453 1130.87 431.342 1131.33 430.081 1131.33 427.784 1131.33 426.301 1130.29 425.634 1128.21L422.965 1119.96C420.445 1112.08 416.405 1108.14 410.846 1108.14L396.28 1108.14 396.28 1126.43C396.28 1127.76 395.798 1128.92 394.835 1129.88 393.871 1130.85 392.722 1131.33 391.388 1131.33 390.054 1131.33 388.923 1130.85 387.997 1129.88 387.07 1128.92 386.607 1127.76 386.607 1126.43L386.607 1070.46C386.607 1069.12 387.07 1067.97 387.997 1067.01 388.923 1066.04 390.054 1065.56 391.388 1065.56ZM349.723 1065.56C351.576 1065.56 353.244 1066.04 354.727 1067.01 356.209 1067.97 357.247 1069.27 357.84 1070.91L377.854 1124.64C378.076 1125.24 378.187 1125.87 378.187 1126.54 378.187 1127.95 377.743 1129.1 376.853 1129.99 375.964 1130.89 374.815 1131.33 373.406 1131.33 371.034 1131.33 369.478 1130.33 368.736 1128.32L364.178 1115.84 335.38 1115.84 330.821 1128.32C330.08 1130.33 328.523 1131.33 326.151 1131.33 324.743 1131.33 323.594 1130.89 322.705 1129.99 321.815 1129.1 321.37 1127.95 321.37 1126.54 321.37 1125.87 321.482 1125.24 321.704 1124.64L341.718 1070.91C342.311 1069.27 343.33 1067.97 344.775 1067.01 346.221 1066.04 347.87 1065.56 349.723 1065.56ZM266.781 1065.56 283.237 1065.56C287.017 1065.56 290.668 1066.11 294.189 1067.23 297.71 1068.34 301.045 1070.07 304.196 1072.41 307.346 1074.75 309.885 1078.06 311.812 1082.34 313.739 1086.61 314.703 1091.57 314.703 1097.22 314.703 1102.49 314.036 1107.2 312.702 1111.32 311.367 1115.45 309.663 1118.73 307.587 1121.19 305.511 1123.64 303.084 1125.65 300.304 1127.21 297.525 1128.77 294.856 1129.84 292.299 1130.44 289.741 1131.03 287.166 1131.33 284.571 1131.33L266.781 1131.33C265.447 1131.33 264.316 1130.85 263.39 1129.88 262.463 1128.92 262 1127.76 262 1126.43L262 1070.46C262 1069.12 262.463 1067.97 263.39 1067.01 264.316 1066.04 265.447 1065.56 266.781 1065.56ZM1209.87 1065C1216.1 1065 1220.92 1065.45 1224.33 1066.34 1225.36 1066.56 1226.22 1067.1 1226.88 1067.95 1227.55 1068.81 1227.88 1069.79 1227.88 1070.91 1227.88 1072.17 1227.42 1073.25 1226.49 1074.14 1225.57 1075.03 1224.47 1075.48 1223.21 1075.48 1216.99 1074.59 1212.87 1074.14 1210.87 1074.14 1209.02 1074.14 1207.52 1074.16 1206.37 1074.2 1205.22 1074.23 1203.74 1074.42 1201.92 1074.75 1200.11 1075.09 1198.68 1075.53 1197.64 1076.09 1196.6 1076.65 1195.68 1077.52 1194.86 1078.71 1194.05 1079.9 1193.64 1081.31 1193.64 1082.95 1193.64 1084.96 1195.03 1086.81 1197.81 1088.52 1200.59 1090.23 1203.94 1091.79 1207.87 1093.2 1211.8 1094.62 1215.75 1096.16 1219.71 1097.83 1223.68 1099.5 1227.05 1101.7 1229.83 1104.41 1232.61 1107.12 1234 1110.26 1234 1113.83 1234 1119.92 1231.76 1124.48 1227.27 1127.49 1222.79 1130.49 1216.77 1132 1209.21 1132 1202.24 1132 1195.79 1130.77 1189.86 1128.32 1187.86 1127.65 1186.86 1126.35 1186.86 1124.42 1186.86 1123.3 1187.26 1122.36 1188.08 1121.58 1188.89 1120.8 1189.82 1120.41 1190.86 1120.41 1197.23 1122.04 1203.2 1122.86 1208.76 1122.86 1219.29 1122.86 1224.55 1119.92 1224.55 1114.05 1224.55 1111.9 1223.16 1109.96 1220.38 1108.25 1217.6 1106.55 1214.25 1105.04 1210.32 1103.74 1206.39 1102.44 1202.44 1101.01 1198.48 1099.45 1194.51 1097.89 1191.14 1095.77 1188.36 1093.09 1185.58 1090.42 1184.19 1087.3 1184.19 1083.73 1184.19 1079.94 1184.87 1076.74 1186.24 1074.14 1187.62 1071.54 1189.6 1069.61 1192.19 1068.34 1194.79 1067.08 1197.47 1066.21 1200.25 1065.72 1203.03 1065.24 1206.24 1065 1209.87 1065ZM968.51 1065C972.291 1065 975.96 1065.58 979.518 1066.73 983.076 1067.88 986.43 1069.66 989.58 1072.08 992.731 1074.49 995.251 1077.86 997.141 1082.17 999.031 1086.48 999.976 1091.5 999.976 1097.22 999.976 1102.64 999.254 1107.47 997.808 1111.71 996.363 1115.95 994.547 1119.31 992.36 1121.8 990.173 1124.29 987.635 1126.33 984.744 1127.93 981.853 1129.53 979.092 1130.61 976.46 1131.16 973.829 1131.72 971.179 1132 968.51 1132 965.842 1132 963.192 1131.72 960.56 1131.16 957.929 1130.61 955.168 1129.53 952.277 1127.93 949.386 1126.33 946.847 1124.29 944.661 1121.8 942.474 1119.31 940.658 1115.95 939.212 1111.71 937.767 1107.47 937.044 1102.64 937.044 1097.22 937.044 1091.5 937.989 1086.48 939.879 1082.17 941.77 1077.86 944.29 1074.49 947.44 1072.08 950.59 1069.66 953.945 1067.88 957.503 1066.73 961.061 1065.58 964.73 1065 968.51 1065Z" fill="#FFFFFF" fill-rule="evenodd"/><g clip-path="url(#clip0)"><g><g><path d="M123.213 257.151 181.997 257.151C186.135 261.289 190.578 265.17 195.251 268.745 205.21 276.354 216.242 282.586 228.116 287.182 239.965 291.753 252.657 294.69 265.885 295.711 266.217 295.737 266.574 295.762 266.932 295.788 267.621 295.839 268.311 295.864 269.025 295.89 269.69 295.941 270.379 295.941 271.043 295.966 271.758 295.992 272.448 296.017 273.137 296.017 273.826 296.017 274.516 296.044 275.206 296.044 275.92 296.044 276.636 296.017 277.351 296.017 278.066 296.017 278.78 295.992 279.496 295.966 279.904 295.966 280.313 295.941 280.696 295.915 281.155 295.915 281.615 295.89 282.075 295.864 283.378 295.788 284.68 295.711 285.982 295.609 286.621 295.558 287.284 295.507 287.948 295.43 288.255 295.405 288.586 295.379 288.919 295.328 289.455 295.277 289.991 295.226 290.502 295.175 291.626 295.047 292.749 294.894 293.847 294.741 294.179 294.69 294.486 294.639 294.818 294.613 295.277 294.537 295.762 294.46 296.222 294.383 296.937 294.281 297.626 294.179 298.316 294.026 298.98 293.923 299.644 293.796 300.308 293.669 300.895 293.566 301.483 293.438 302.07 293.336 302.478 293.234 302.887 293.158 303.295 293.081 304.343 292.851 305.415 292.621 306.437 292.366 307.075 292.213 307.713 292.06 308.352 291.881 308.403 291.881 308.454 291.855 308.53 291.83 309.144 291.677 309.731 291.524 310.344 291.345 311.007 291.166 311.646 290.987 312.31 290.808 312.974 290.604 313.613 290.425 314.276 290.221 314.915 290.017 315.578 289.812 316.217 289.608 316.856 289.404 317.519 289.2 318.158 288.97 319.333 288.561 320.507 288.152 321.682 287.693 322.422 287.438 323.137 287.157 323.853 286.876 325.104 286.391 326.355 285.88 327.606 285.343 328.219 285.088 328.832 284.807 329.445 284.526 330.058 284.271 330.67 283.99 331.284 283.709 332.33 283.198 333.403 282.688 334.45 282.177 334.629 282.1 334.833 281.998 335.012 281.896 336.161 281.308 337.31 280.696 338.459 280.083 338.408 280.032 338.331 279.955 338.28 279.904 349.312 274.057 359.399 266.728 368.311 258.147 368.439 257.994 368.567 257.892 368.694 257.79 393.567 233.632 409.016 199.848 409.016 162.437 409.016 93.0547 355.824 36.0829 287.974 30.1074 287.386 30.0563 286.799 30.0052 286.211 29.9542 285.624 29.9031 285.012 29.8521 284.399 29.8265 284.322 29.8009 284.246 29.8009 284.143 29.8009 283.683 29.7754 283.224 29.7499 282.764 29.7244 281.003 29.6222 279.24 29.5456 277.453 29.52 276.712 29.52 275.971 29.4945 275.206 29.4945 274.261 29.4945 273.341 29.52 272.397 29.5456 271.477 29.5456 270.558 29.5711 269.639 29.6222 268.643 29.6733 267.647 29.7244 266.651 29.7754 265.885 29.8265 265.119 29.8776 264.353 29.9286 264.174 29.9542 264.021 29.9797 263.842 29.9797 263.28 30.0308 262.693 30.0818 262.131 30.133 261.952 30.1585 261.774 30.184 261.595 30.2095 261.262 30.2351 260.956 30.2606 260.65 30.2861 259.96 30.3627 259.271 30.4394 258.607 30.5415 257.688 30.6437 256.794 30.7713 255.9 30.899 255.032 31.0267 254.215 31.1544 253.372 31.2821 253.244 31.3076 253.117 31.3331 252.989 31.3587 252.172 31.4864 251.354 31.6396 250.512 31.7928 249.797 31.9205 249.082 32.0737 248.341 32.2269 248.111 32.278 247.856 32.3035 247.601 32.3801 246.809 32.5333 246.017 32.7121 245.226 32.8909 226.84 37.1299 209.884 45.1739 195.251 56.1545L89.9645 56.1545 89.9645 72.37 106.027 72.37 106.027 88.4838 79.1629 88.4838 79.1629 88.4322 72.9061 88.4322 72.9061 96.5019C72.8551 96.9869 72.8551 97.4465 72.9061 97.9322L72.9061 104.495 80.1076 104.495C80.4652 104.546 80.7973 104.546 81.1804 104.546 81.5379 104.546 81.8949 104.546 82.2525 104.495L239.046 104.495C239.097 104.495 239.148 104.495 239.199 104.495 239.225 104.521 239.251 104.495 239.276 104.521L239.327 104.521C239.378 104.546 239.429 104.546 239.48 104.572L239.506 104.572C239.633 104.623 239.736 104.674 239.838 104.775 239.914 104.827 239.991 104.904 240.042 104.98 240.042 104.98 240.068 104.98 240.068 105.006L240.323 105.006 240.323 183.223C240.323 183.275 240.323 183.351 240.297 183.428 240.246 183.76 240.068 184.015 239.863 184.22 239.838 184.22 239.838 184.22 239.838 184.22 239.736 184.296 239.633 184.373 239.506 184.398L239.48 184.423C239.429 184.449 239.378 184.449 239.327 184.449L239.302 184.475 239.276 184.475C239.225 184.475 239.173 184.475 239.122 184.475 239.097 184.475 239.072 184.501 239.046 184.501L236.186 184.501 236.186 185.062 74.5404 185.062 74.4129 185.037 72.7786 185.037C72.7276 185.037 72.7021 185.062 72.6511 185.062L63.6111 185.062 63.6111 193.132C63.5601 193.642 63.5601 194.178 63.6111 194.664L63.6111 201.175 70.8122 201.175C71.1443 201.201 71.5019 201.226 71.885 201.226 72.217 201.226 72.6001 201.226 72.9577 201.175L106.384 201.175C103.678 204.93 102.095 209.501 102.095 214.455L89.0454 214.455 89.0454 230.568 114.888 230.568C112.233 228.933 110.011 226.661 108.427 223.954 106.818 221.145 105.899 217.902 105.899 214.455 105.899 209.271 107.968 204.598 111.313 201.175 111.977 200.486 112.692 199.848 113.458 199.286 116.624 196.886 120.583 195.481 124.848 195.481 125.128 195.481 125.409 195.506 125.69 195.506 129.648 195.685 133.274 197.064 136.211 199.286 136.466 199.465 136.697 199.644 136.926 199.848 137.437 200.256 137.922 200.716 138.356 201.175 141.727 204.572 143.795 209.271 143.795 214.455 143.795 215.859 143.642 217.213 143.361 218.54 142.927 220.456 142.238 222.269 141.267 223.954 140.169 225.793 138.79 227.478 137.156 228.831 133.862 231.692 129.546 233.402 124.848 233.402 124.49 233.402 124.158 233.402 123.8 233.377L123.8 243.873 110.087 243.873C109.985 243.898 109.858 243.924 109.756 243.924 109.627 243.924 109.5 243.898 109.398 243.873L107.023 243.873 107.023 257.151ZM338.433 214.455 315.681 214.455C315.681 209.577 314.149 205.032 311.544 201.329 307.56 195.711 301.1 191.957 293.745 191.701 293.464 191.701 293.209 191.701 292.928 191.701 286.263 191.701 280.287 194.562 276.125 199.132 272.422 203.167 270.175 208.555 270.175 214.455L147.447 214.455 147.6 214.455C147.6 209.501 146.017 204.93 143.336 201.175L255.032 201.175 255.032 104.495 293.54 104.495C296.222 104.546 298.852 104.878 301.381 105.44 318.26 109.27 330.85 124.387 330.85 142.417L330.85 199.286C335.037 199.286 338.433 202.682 338.433 206.87ZM305.67 228.474C305.441 228.704 305.211 228.882 304.981 229.087 301.764 231.743 297.652 233.351 293.158 233.402 293.158 233.402 293.158 233.402 293.132 233.402L292.928 233.402C285.931 233.402 279.802 229.598 276.534 223.954 276.38 223.699 276.253 223.469 276.125 223.213 274.746 220.583 273.98 217.596 273.98 214.455 273.98 211.288 274.746 208.3 276.125 205.67 279.292 199.618 285.624 195.481 292.928 195.481 293.438 195.481 293.975 195.506 294.46 195.558 301.84 196.145 308.045 200.971 310.599 207.585 311.442 209.705 311.901 212.029 311.901 214.455 311.901 219.996 309.501 225.001 305.67 228.474" fill="#FFFFFF" fill-rule="evenodd" transform="matrix(-1 0 0 1.00347 1738 837.656)"/><path d="M40.7561 88.3812 24.6937 88.3812 24.6937 104.495 40.7561 104.495 40.7561 88.3812" fill="#FFFFFF" fill-rule="evenodd" transform="matrix(-1 0 0 1.00347 1738 837.656)"/><path d="M0 136.697 16.0879 136.697 16.0879 120.583 0 120.583 0 136.697" fill="#FFFFFF" fill-rule="evenodd" transform="matrix(-1 0 0 1.00347 1738 837.656)"/><path d="M31.4608 201.175 47.5488 201.175 47.5488 185.062 31.4608 185.062 31.4608 201.175" fill="#FFFFFF" fill-rule="evenodd" transform="matrix(-1 0 0 1.00347 1738 837.656)"/><path d="M134.322 214.455C134.322 209.22 130.082 204.981 124.848 204.981 119.613 204.981 115.373 209.22 115.373 214.455 115.373 219.69 119.613 223.928 124.848 223.928 130.082 223.928 134.322 219.69 134.322 214.455" fill="#FFFFFF" fill-rule="evenodd" transform="matrix(-1 0 0 1.00347 1738 837.656)"/><path d="M73.9024 72.268 73.9024 56.1545 72.5236 56.1545 72.1406 56.2056 63.6111 56.2056 63.6111 56.2567 57.8144 56.2567 57.8144 72.37 73.9024 72.37 73.9024 72.268" fill="#FFFFFF" fill-rule="evenodd" transform="matrix(-1 0 0 1.00347 1738 837.656)"/><path d="M32.1503 136.697 70.6082 136.697 70.6082 120.634 32.1503 120.634 32.1503 136.697" fill="#FFFFFF" fill-rule="evenodd" transform="matrix(-1 0 0 1.00347 1738 837.656)"/><path d="M299.465 116.676C298.904 116.548 298.367 116.42 297.805 116.318 296.247 116.037 294.613 115.884 292.928 115.884L266.396 115.884 266.396 156.64 319.486 156.64 319.486 142.417C319.486 135.088 316.498 128.448 311.697 123.647 308.378 120.327 304.164 117.876 299.465 116.676" fill="#FFFFFF" fill-rule="evenodd" transform="matrix(-1 0 0 1.00347 1738 837.656)"/><path d="M296.886 205.823C295.992 205.415 295.022 205.159 294.026 205.032 294.001 205.032 294.001 205.032 293.975 205.032 293.771 205.006 293.566 205.006 293.362 205.006 293.209 204.981 293.081 204.981 292.928 204.981 287.693 204.981 283.454 209.22 283.454 214.455 283.454 219.69 287.693 223.928 292.928 223.928 296.427 223.928 299.44 222.065 301.1 219.281 301.942 217.851 302.427 216.216 302.427 214.455 302.427 210.624 300.155 207.33 296.886 205.823" fill="#FFFFFF" fill-rule="evenodd" transform="matrix(-1 0 0 1.00347 1738 837.656)"/><path d="M56.7929 230.568 72.9061 230.568 72.9061 214.455 56.7929 214.455 56.7929 230.568" fill="#FFFFFF" fill-rule="evenodd" transform="matrix(-1 0 0 1.00347 1738 837.656)"/><path d="M86.6959 168.949 86.6959 152.886 54.4947 152.886 54.4947 169 86.6959 169 86.6959 168.949" fill="#FFFFFF" fill-rule="evenodd" transform="matrix(-1 0 0 1.00347 1738 837.656)"/><g><path d="M438 162.769C438 118.208 420.022 77.8091 390.937 48.3659L391.039 48.3659 388.894 46.3485 387.438 44.9696C386.519 44.0502 385.574 43.182 384.603 42.3138 384.603 42.3138 384.578 42.2882 384.552 42.2882 383.097 40.9603 381.641 39.658 380.134 38.4067 375.665 34.6018 370.993 31.0778 366.166 27.8091 364.583 26.7366 362.948 25.6896 361.34 24.6682 361.289 24.6426 361.263 24.617 361.238 24.617 358.812 23.0849 356.36 21.6549 353.858 20.2504 348.904 17.518 343.822 15.0409 338.613 12.8448 338.587 12.8193 338.536 12.7937 338.51 12.7682 336.799 12.0532 335.063 11.3637 333.327 10.6998 332.458 10.3678 331.565 10.0358 330.67 9.70386 330.619 9.6783 330.594 9.6783 330.568 9.65274 328.807 9.01437 327.019 8.42699 325.231 7.83968 323.393 7.25236 321.554 6.69055 319.715 6.1798 319.077 5.97551 318.438 5.79676 317.8 5.64354 317.136 5.46479 316.498 5.28603 315.834 5.10728 315.195 4.95405 314.557 4.7753 313.893 4.62208 310.088 3.70277 306.233 2.91114 302.351 2.2472 301.942 2.17059 301.534 2.11952 301.125 2.04291 300.742 1.99184 300.359 1.91523 299.976 1.86415 299.286 1.76201 298.622 1.65986 297.933 1.55772 297.499 1.50665 297.065 1.43004 296.605 1.37897 295.966 1.30236 295.328 1.22575 294.69 1.14914 294.052 1.07252 293.413 0.99592 292.749 0.91931 292.034 0.842699 291.319 0.766095 290.578 0.715019 290.017 0.638409 289.455 0.587337 288.893 0.5618 287.463 0.434118 286.058 0.331973 284.629 0.255364 284.118 0.229827 283.581 0.204291 283.045 0.178755 282.407 0.153218 281.743 0.102146 281.079 0.102146 280.44 0.0510728 279.802 0.0510728 279.138 0.0255364 277.836 0 276.508-0.0255364 275.206-0.0255364 274.21-0.0255364 273.188 0 272.192 0.0255364 272.014 0.0255364 271.886 0.0255364 271.733 0.0255364 270.788 0.0510728 269.868 0.0510728 268.923 0.102146 268.771 0.102146 268.617 0.102146 268.464 0.127682 267.57 0.153218 266.651 0.204291 265.757 0.255364 265.553 0.280901 265.374 0.280901 265.195 0.280901 264.353 0.331973 263.51 0.383046 262.693 0.459655 262.335 0.485192 261.952 0.510728 261.595 0.536264 260.982 0.587337 260.42 0.638409 259.833 0.715019 259.399 0.740553 258.99 0.791629 258.581 0.817164 257.917 0.893775 257.228 0.970386 256.539 1.04699 255.874 1.1236 255.185 1.20021 254.496 1.27682 253.831 1.37897 253.142 1.45557 252.478 1.55772 232.56 4.31565 213.484 10.7508 195.941 20.6078 195.379 20.9143 194.792 21.2463 194.229 21.5782 193.132 22.2167 192.034 22.8806 190.935 23.5445 189.761 24.2596 188.586 25.0001 187.412 25.7407 186.978 26.0216 186.569 26.2769 186.135 26.5834 185.42 27.0175 184.73 27.5027 184.04 27.9879 183.938 28.0389 183.862 28.09 183.785 28.1411L162.667 35.3424 199.21 35.3424 199.669 35.0614C200.384 34.6274 201.099 34.2188 201.814 33.8102 203.167 33.0185 204.521 32.278 205.925 31.5374 206.768 31.0778 207.636 30.6437 208.504 30.2095 209.73 29.5711 210.956 28.9838 212.182 28.422 213.101 27.9879 214.021 27.5537 214.965 27.1451 215.093 27.0685 215.246 26.992 215.399 26.9409 216.242 26.5834 217.059 26.2003 217.902 25.8683 218.822 25.4598 219.766 25.1022 220.685 24.7192 220.736 24.6937 220.762 24.6937 220.813 24.6682 221.784 24.2851 222.754 23.9276 223.725 23.5445 224.72 23.1871 225.69 22.855 226.687 22.4976 232.585 20.4547 238.612 18.7948 244.741 17.4924 244.741 17.4924 244.766 17.4924 244.792 17.4924 246.682 17.0838 248.596 16.7263 250.512 16.4199 250.818 16.3433 251.125 16.2922 251.456 16.2412 252.3 16.1134 253.168 15.9858 254.062 15.8581 254.164 15.8326 254.291 15.807 254.394 15.807 255.338 15.6794 256.257 15.5517 257.177 15.4495 258.224 15.3218 259.271 15.1942 260.318 15.092 261.135 15.0154 261.952 14.9388 262.795 14.8622 264.353 14.7345 265.936 14.6323 267.519 14.5302 268.26 14.5047 268.974 14.4791 269.715 14.4536 270.175 14.428 270.634 14.4025 271.095 14.4025 271.682 14.377 272.294 14.377 272.882 14.3514 273.648 14.3514 274.414 14.3514 275.206 14.3514 276.278 14.3514 277.351 14.3514 278.397 14.377 279.445 14.4025 280.466 14.428 281.513 14.4791 281.59 14.4791 281.666 14.4791 281.769 14.4791 282.815 14.5302 283.837 14.5813 284.858 14.6579 285.905 14.7345 286.927 14.8111 287.974 14.8877 314.302 17.186 339.736 26.5323 361.289 41.9052 362.182 42.5436 363.077 43.2076 363.97 43.8715 364.021 43.9226 364.047 43.9481 364.098 43.9736 365.808 45.2505 367.468 46.5528 369.128 47.9318L369.665 48.3659 369.69 48.3659C402.632 75.6132 423.649 116.778 423.649 162.769 423.649 216.855 394.588 264.251 351.253 290.221L351.228 290.221 350.742 290.476C344.869 293.975 338.766 297.039 332.509 299.669 328.5 301.355 324.465 302.861 320.328 304.164 318.567 304.726 316.804 305.262 315.017 305.772 312.744 306.386 310.471 306.973 308.173 307.509 307.969 307.535 307.79 307.586 307.611 307.637 307.075 307.739 306.564 307.867 306.028 307.969 304.879 308.224 303.755 308.454 302.581 308.658 302.529 308.658 302.453 308.684 302.376 308.684 301.303 308.914 300.206 309.092 299.133 309.271 297.754 309.475 296.4 309.68 295.047 309.884 293.413 310.088 291.753 310.267 290.119 310.446 289.302 310.522 288.484 310.624 287.642 310.675 286.058 310.803 284.475 310.931 282.892 311.007 282.177 311.033 281.437 311.058 280.721 311.109 280.236 311.109 279.802 311.136 279.317 311.136 278.729 311.161 278.142 311.161 277.555 311.187 276.763 311.187 275.998 311.187 275.206 311.187 274.133 311.187 273.086 311.187 272.014 311.161 270.966 311.136 269.945 311.109 268.898 311.058 268.822 311.058 268.745 311.058 268.669 311.058 267.621 311.007 266.574 310.956 265.553 310.88 264.506 310.803 263.484 310.726 262.463 310.65 238.433 308.556 215.195 300.589 194.945 287.565 193.566 286.672 192.212 285.777 190.859 284.833 189.352 283.786 187.897 282.739 186.466 281.666 186.415 281.641 186.364 281.615 186.339 281.564 185.471 280.926 184.628 280.287 183.785 279.623 182.943 278.96 182.126 278.295 181.283 277.632 181.104 277.478 180.925 277.325 180.746 277.172L144.229 277.172 168.157 285.318 168.183 285.318C168.872 285.931 169.562 286.544 170.277 287.131 172.269 288.817 174.286 290.451 176.354 292.034 177.299 292.749 178.244 293.464 179.189 294.154 179.802 294.613 180.44 295.047 181.053 295.507 183.223 297.039 185.42 298.521 187.641 299.976 189.812 301.355 192.008 302.708 194.255 303.985 202.274 308.581 210.65 312.514 219.307 315.681 219.919 315.91 220.558 316.115 221.17 316.345 221.86 316.575 222.55 316.83 223.264 317.06 224.286 317.417 225.307 317.749 226.329 318.055 226.636 318.158 226.916 318.234 227.197 318.336 228.372 318.694 229.521 319.026 230.696 319.384 233.275 320.098 235.879 320.788 238.484 321.376 242.417 322.295 246.426 323.061 250.461 323.673 251.125 323.775 251.789 323.878 252.478 323.98 253.091 324.057 253.704 324.133 254.317 324.21 254.777 324.287 255.262 324.338 255.721 324.389 256.386 324.491 257.024 324.542 257.662 324.618 258.734 324.746 259.807 324.823 260.905 324.925 261.518 324.976 262.106 325.027 262.693 325.078 263.714 325.155 264.761 325.231 265.782 325.282 266.319 325.308 266.83 325.359 267.366 325.359 268.03 325.41 268.669 325.435 269.332 325.435 270.583 325.487 271.835 325.538 273.111 325.538 273.801 325.563 274.516 325.563 275.206 325.563 276.227 325.563 277.223 325.538 278.244 325.538 278.397 325.538 278.551 325.538 278.704 325.512 279.649 325.487 280.568 325.487 281.488 325.435 281.666 325.435 281.794 325.435 281.947 325.41 282.866 325.384 283.76 325.333 284.68 325.282 284.858 325.282 285.037 325.282 285.216 325.257 286.058 325.206 286.901 325.155 287.718 325.078 288.101 325.053 288.484 325.027 288.842 325.001 289.429 324.95 290.017 324.899 290.604 324.823 291.012 324.797 291.421 324.746 291.83 324.721 292.519 324.644 293.183 324.567 293.872 324.491 294.562 324.414 295.252 324.338 295.915 324.236 297.882 324.006 299.823 323.724 301.738 323.393 317.596 320.813 332.892 315.91 347.244 308.735 347.295 308.735 347.346 308.71 347.397 308.684 349.057 307.841 350.742 306.973 352.402 306.079 352.964 305.772 353.525 305.466 354.088 305.134 354.956 304.675 355.799 304.189 356.641 303.678 357.586 303.142 358.557 302.581 359.476 301.993 360.063 301.661 360.651 301.303 361.238 300.92 362.029 300.41 362.846 299.899 363.638 299.389 363.664 299.389 363.689 299.363 363.715 299.338 364.532 298.801 365.349 298.265 366.166 297.729 366.243 297.678 366.32 297.601 366.396 297.55 367.29 296.937 368.183 296.324 369.077 295.711 369.971 295.073 370.84 294.435 371.733 293.771L372.857 292.953 376.56 290.221 376.381 290.221C413.919 260.369 438 214.327 438 162.769" fill="#FFFFFF" fill-rule="evenodd" transform="matrix(-1 0 0 1.00347 1738 837.656)"/></g></g></g></g><g clip-path="url(#clip1)"><g><g><path d="M123.213 257.151 181.997 257.151C186.135 261.289 190.578 265.17 195.251 268.745 205.21 276.354 216.242 282.586 228.116 287.182 239.965 291.753 252.657 294.69 265.885 295.711 266.217 295.737 266.574 295.762 266.932 295.788 267.621 295.839 268.311 295.864 269.025 295.89 269.69 295.941 270.379 295.941 271.043 295.966 271.758 295.992 272.448 296.017 273.137 296.017 273.826 296.017 274.516 296.044 275.206 296.044 275.92 296.044 276.636 296.017 277.351 296.017 278.066 296.017 278.78 295.992 279.496 295.966 279.904 295.966 280.313 295.941 280.696 295.915 281.155 295.915 281.615 295.89 282.075 295.864 283.378 295.788 284.68 295.711 285.982 295.609 286.621 295.558 287.284 295.507 287.948 295.43 288.255 295.405 288.586 295.379 288.919 295.328 289.455 295.277 289.991 295.226 290.502 295.175 291.626 295.047 292.749 294.894 293.847 294.741 294.179 294.69 294.486 294.639 294.818 294.613 295.277 294.537 295.762 294.46 296.222 294.383 296.937 294.281 297.626 294.179 298.316 294.026 298.98 293.923 299.644 293.796 300.308 293.669 300.895 293.566 301.483 293.438 302.07 293.336 302.478 293.234 302.887 293.158 303.295 293.081 304.343 292.851 305.415 292.621 306.437 292.366 307.075 292.213 307.713 292.06 308.352 291.881 308.403 291.881 308.454 291.855 308.53 291.83 309.144 291.677 309.731 291.524 310.344 291.345 311.007 291.166 311.646 290.987 312.31 290.808 312.974 290.604 313.613 290.425 314.276 290.221 314.915 290.017 315.578 289.812 316.217 289.608 316.856 289.404 317.519 289.2 318.158 288.97 319.333 288.561 320.507 288.152 321.682 287.693 322.422 287.438 323.137 287.157 323.853 286.876 325.104 286.391 326.355 285.88 327.606 285.343 328.219 285.088 328.832 284.807 329.445 284.526 330.058 284.271 330.67 283.99 331.284 283.709 332.33 283.198 333.403 282.688 334.45 282.177 334.629 282.1 334.833 281.998 335.012 281.896 336.161 281.308 337.31 280.696 338.459 280.083 338.408 280.032 338.331 279.955 338.28 279.904 349.312 274.057 359.399 266.728 368.311 258.147 368.439 257.994 368.567 257.892 368.694 257.79 393.567 233.632 409.016 199.848 409.016 162.437 409.016 93.0547 355.824 36.0829 287.974 30.1074 287.386 30.0563 286.799 30.0052 286.211 29.9542 285.624 29.9031 285.012 29.8521 284.399 29.8265 284.322 29.8009 284.246 29.8009 284.143 29.8009 283.683 29.7754 283.224 29.7499 282.764 29.7244 281.003 29.6222 279.24 29.5456 277.453 29.52 276.712 29.52 275.971 29.4945 275.206 29.4945 274.261 29.4945 273.341 29.52 272.397 29.5456 271.477 29.5456 270.558 29.5711 269.639 29.6222 268.643 29.6733 267.647 29.7244 266.651 29.7754 265.885 29.8265 265.119 29.8776 264.353 29.9286 264.174 29.9542 264.021 29.9797 263.842 29.9797 263.28 30.0308 262.693 30.0818 262.131 30.133 261.952 30.1585 261.774 30.184 261.595 30.2095 261.262 30.2351 260.956 30.2606 260.65 30.2861 259.96 30.3627 259.271 30.4394 258.607 30.5415 257.688 30.6437 256.794 30.7713 255.9 30.899 255.032 31.0267 254.215 31.1544 253.372 31.2821 253.244 31.3076 253.117 31.3331 252.989 31.3587 252.172 31.4864 251.354 31.6396 250.512 31.7928 249.797 31.9205 249.082 32.0737 248.341 32.2269 248.111 32.278 247.856 32.3035 247.601 32.3801 246.809 32.5333 246.017 32.7121 245.226 32.8909 226.84 37.1299 209.884 45.1739 195.251 56.1545L89.9645 56.1545 89.9645 72.37 106.027 72.37 106.027 88.4838 79.1629 88.4838 79.1629 88.4322 72.9061 88.4322 72.9061 96.5019C72.8551 96.9869 72.8551 97.4465 72.9061 97.9322L72.9061 104.495 80.1076 104.495C80.4652 104.546 80.7973 104.546 81.1804 104.546 81.5379 104.546 81.8949 104.546 82.2525 104.495L239.046 104.495C239.097 104.495 239.148 104.495 239.199 104.495 239.225 104.521 239.251 104.495 239.276 104.521L239.327 104.521C239.378 104.546 239.429 104.546 239.48 104.572L239.506 104.572C239.633 104.623 239.736 104.674 239.838 104.775 239.914 104.827 239.991 104.904 240.042 104.98 240.042 104.98 240.068 104.98 240.068 105.006L240.323 105.006 240.323 183.223C240.323 183.275 240.323 183.351 240.297 183.428 240.246 183.76 240.068 184.015 239.863 184.22 239.838 184.22 239.838 184.22 239.838 184.22 239.736 184.296 239.633 184.373 239.506 184.398L239.48 184.423C239.429 184.449 239.378 184.449 239.327 184.449L239.302 184.475 239.276 184.475C239.225 184.475 239.173 184.475 239.122 184.475 239.097 184.475 239.072 184.501 239.046 184.501L236.186 184.501 236.186 185.062 74.5404 185.062 74.4129 185.037 72.7786 185.037C72.7276 185.037 72.7021 185.062 72.6511 185.062L63.6111 185.062 63.6111 193.132C63.5601 193.642 63.5601 194.178 63.6111 194.664L63.6111 201.175 70.8122 201.175C71.1443 201.201 71.5019 201.226 71.885 201.226 72.217 201.226 72.6001 201.226 72.9577 201.175L106.384 201.175C103.678 204.93 102.095 209.501 102.095 214.455L89.0454 214.455 89.0454 230.568 114.888 230.568C112.233 228.933 110.011 226.661 108.427 223.954 106.818 221.145 105.899 217.902 105.899 214.455 105.899 209.271 107.968 204.598 111.313 201.175 111.977 200.486 112.692 199.848 113.458 199.286 116.624 196.886 120.583 195.481 124.848 195.481 125.128 195.481 125.409 195.506 125.69 195.506 129.648 195.685 133.274 197.064 136.211 199.286 136.466 199.465 136.697 199.644 136.926 199.848 137.437 200.256 137.922 200.716 138.356 201.175 141.727 204.572 143.795 209.271 143.795 214.455 143.795 215.859 143.642 217.213 143.361 218.54 142.927 220.456 142.238 222.269 141.267 223.954 140.169 225.793 138.79 227.478 137.156 228.831 133.862 231.692 129.546 233.402 124.848 233.402 124.49 233.402 124.158 233.402 123.8 233.377L123.8 243.873 110.087 243.873C109.985 243.898 109.858 243.924 109.756 243.924 109.627 243.924 109.5 243.898 109.398 243.873L107.023 243.873 107.023 257.151ZM338.433 214.455 315.681 214.455C315.681 209.577 314.149 205.032 311.544 201.329 307.56 195.711 301.1 191.957 293.745 191.701 293.464 191.701 293.209 191.701 292.928 191.701 286.263 191.701 280.287 194.562 276.125 199.132 272.422 203.167 270.175 208.555 270.175 214.455L147.447 214.455 147.6 214.455C147.6 209.501 146.017 204.93 143.336 201.175L255.032 201.175 255.032 104.495 293.54 104.495C296.222 104.546 298.852 104.878 301.381 105.44 318.26 109.27 330.85 124.387 330.85 142.417L330.85 199.286C335.037 199.286 338.433 202.682 338.433 206.87ZM305.67 228.474C305.441 228.704 305.211 228.882 304.981 229.087 301.764 231.743 297.652 233.351 293.158 233.402 293.158 233.402 293.158 233.402 293.132 233.402L292.928 233.402C285.931 233.402 279.802 229.598 276.534 223.954 276.38 223.699 276.253 223.469 276.125 223.213 274.746 220.583 273.98 217.596 273.98 214.455 273.98 211.288 274.746 208.3 276.125 205.67 279.292 199.618 285.624 195.481 292.928 195.481 293.438 195.481 293.975 195.506 294.46 195.558 301.84 196.145 308.045 200.971 310.599 207.585 311.442 209.705 311.901 212.029 311.901 214.455 311.901 219.996 309.501 225.001 305.67 228.474" fill="#004AAD" fill-rule="evenodd" transform="matrix(-1 0 0 1.00347 1738 835.656)"/><path d="M40.7561 88.3812 24.6937 88.3812 24.6937 104.495 40.7561 104.495 40.7561 88.3812" fill="#004AAD" fill-rule="evenodd" transform="matrix(-1 0 0 1.00347 1738 835.656)"/><path d="M0 136.697 16.0879 136.697 16.0879 120.583 0 120.583 0 136.697" fill="#004AAD" fill-rule="evenodd" transform="matrix(-1 0 0 1.00347 1738 835.656)"/><path d="M31.4608 201.175 47.5488 201.175 47.5488 185.062 31.4608 185.062 31.4608 201.175" fill="#004AAD" fill-rule="evenodd" transform="matrix(-1 0 0 1.00347 1738 835.656)"/><path d="M134.322 214.455C134.322 209.22 130.082 204.981 124.848 204.981 119.613 204.981 115.373 209.22 115.373 214.455 115.373 219.69 119.613 223.928 124.848 223.928 130.082 223.928 134.322 219.69 134.322 214.455" fill="#004AAD" fill-rule="evenodd" transform="matrix(-1 0 0 1.00347 1738 835.656)"/><path d="M73.9024 72.268 73.9024 56.1545 72.5236 56.1545 72.1406 56.2056 63.6111 56.2056 63.6111 56.2567 57.8144 56.2567 57.8144 72.37 73.9024 72.37 73.9024 72.268" fill="#004AAD" fill-rule="evenodd" transform="matrix(-1 0 0 1.00347 1738 835.656)"/><path d="M32.1503 136.697 70.6082 136.697 70.6082 120.634 32.1503 120.634 32.1503 136.697" fill="#004AAD" fill-rule="evenodd" transform="matrix(-1 0 0 1.00347 1738 835.656)"/><path d="M299.465 116.676C298.904 116.548 298.367 116.42 297.805 116.318 296.247 116.037 294.613 115.884 292.928 115.884L266.396 115.884 266.396 156.64 319.486 156.64 319.486 142.417C319.486 135.088 316.498 128.448 311.697 123.647 308.378 120.327 304.164 117.876 299.465 116.676" fill="#004AAD" fill-rule="evenodd" transform="matrix(-1 0 0 1.00347 1738 835.656)"/><path d="M296.886 205.823C295.992 205.415 295.022 205.159 294.026 205.032 294.001 205.032 294.001 205.032 293.975 205.032 293.771 205.006 293.566 205.006 293.362 205.006 293.209 204.981 293.081 204.981 292.928 204.981 287.693 204.981 283.454 209.22 283.454 214.455 283.454 219.69 287.693 223.928 292.928 223.928 296.427 223.928 299.44 222.065 301.1 219.281 301.942 217.851 302.427 216.216 302.427 214.455 302.427 210.624 300.155 207.33 296.886 205.823" fill="#004AAD" fill-rule="evenodd" transform="matrix(-1 0 0 1.00347 1738 835.656)"/><path d="M56.7929 230.568 72.9061 230.568 72.9061 214.455 56.7929 214.455 56.7929 230.568" fill="#004AAD" fill-rule="evenodd" transform="matrix(-1 0 0 1.00347 1738 835.656)"/><path d="M86.6959 168.949 86.6959 152.886 54.4947 152.886 54.4947 169 86.6959 169 86.6959 168.949" fill="#004AAD" fill-rule="evenodd" transform="matrix(-1 0 0 1.00347 1738 835.656)"/><g><path d="M438 162.769C438 118.208 420.022 77.8091 390.937 48.3659L391.039 48.3659 388.894 46.3485 387.438 44.9696C386.519 44.0502 385.574 43.182 384.603 42.3138 384.603 42.3138 384.578 42.2882 384.552 42.2882 383.097 40.9603 381.641 39.658 380.134 38.4067 375.665 34.6018 370.993 31.0778 366.166 27.8091 364.583 26.7366 362.948 25.6896 361.34 24.6682 361.289 24.6426 361.263 24.617 361.238 24.617 358.812 23.0849 356.36 21.6549 353.858 20.2504 348.904 17.518 343.822 15.0409 338.613 12.8448 338.587 12.8193 338.536 12.7937 338.51 12.7682 336.799 12.0532 335.063 11.3637 333.327 10.6998 332.458 10.3678 331.565 10.0358 330.67 9.70386 330.619 9.6783 330.594 9.6783 330.568 9.65274 328.807 9.01437 327.019 8.42699 325.231 7.83968 323.393 7.25236 321.554 6.69055 319.715 6.1798 319.077 5.97551 318.438 5.79676 317.8 5.64354 317.136 5.46479 316.498 5.28603 315.834 5.10728 315.195 4.95405 314.557 4.7753 313.893 4.62208 310.088 3.70277 306.233 2.91114 302.351 2.2472 301.942 2.17059 301.534 2.11952 301.125 2.04291 300.742 1.99184 300.359 1.91523 299.976 1.86415 299.286 1.76201 298.622 1.65986 297.933 1.55772 297.499 1.50665 297.065 1.43004 296.605 1.37897 295.966 1.30236 295.328 1.22575 294.69 1.14914 294.052 1.07252 293.413 0.99592 292.749 0.91931 292.034 0.842699 291.319 0.766095 290.578 0.715019 290.017 0.638409 289.455 0.587337 288.893 0.5618 287.463 0.434118 286.058 0.331973 284.629 0.255364 284.118 0.229827 283.581 0.204291 283.045 0.178755 282.407 0.153218 281.743 0.102146 281.079 0.102146 280.44 0.0510728 279.802 0.0510728 279.138 0.0255364 277.836 0 276.508-0.0255364 275.206-0.0255364 274.21-0.0255364 273.188 0 272.192 0.0255364 272.014 0.0255364 271.886 0.0255364 271.733 0.0255364 270.788 0.0510728 269.868 0.0510728 268.923 0.102146 268.771 0.102146 268.617 0.102146 268.464 0.127682 267.57 0.153218 266.651 0.204291 265.757 0.255364 265.553 0.280901 265.374 0.280901 265.195 0.280901 264.353 0.331973 263.51 0.383046 262.693 0.459655 262.335 0.485192 261.952 0.510728 261.595 0.536264 260.982 0.587337 260.42 0.638409 259.833 0.715019 259.399 0.740553 258.99 0.791629 258.581 0.817164 257.917 0.893775 257.228 0.970386 256.539 1.04699 255.874 1.1236 255.185 1.20021 254.496 1.27682 253.831 1.37897 253.142 1.45557 252.478 1.55772 232.56 4.31565 213.484 10.7508 195.941 20.6078 195.379 20.9143 194.792 21.2463 194.229 21.5782 193.132 22.2167 192.034 22.8806 190.935 23.5445 189.761 24.2596 188.586 25.0001 187.412 25.7407 186.978 26.0216 186.569 26.2769 186.135 26.5834 185.42 27.0175 184.73 27.5027 184.04 27.9879 183.938 28.0389 183.862 28.09 183.785 28.1411L162.667 35.3424 199.21 35.3424 199.669 35.0614C200.384 34.6274 201.099 34.2188 201.814 33.8102 203.167 33.0185 204.521 32.278 205.925 31.5374 206.768 31.0778 207.636 30.6437 208.504 30.2095 209.73 29.5711 210.956 28.9838 212.182 28.422 213.101 27.9879 214.021 27.5537 214.965 27.1451 215.093 27.0685 215.246 26.992 215.399 26.9409 216.242 26.5834 217.059 26.2003 217.902 25.8683 218.822 25.4598 219.766 25.1022 220.685 24.7192 220.736 24.6937 220.762 24.6937 220.813 24.6682 221.784 24.2851 222.754 23.9276 223.725 23.5445 224.72 23.1871 225.69 22.855 226.687 22.4976 232.585 20.4547 238.612 18.7948 244.741 17.4924 244.741 17.4924 244.766 17.4924 244.792 17.4924 246.682 17.0838 248.596 16.7263 250.512 16.4199 250.818 16.3433 251.125 16.2922 251.456 16.2412 252.3 16.1134 253.168 15.9858 254.062 15.8581 254.164 15.8326 254.291 15.807 254.394 15.807 255.338 15.6794 256.257 15.5517 257.177 15.4495 258.224 15.3218 259.271 15.1942 260.318 15.092 261.135 15.0154 261.952 14.9388 262.795 14.8622 264.353 14.7345 265.936 14.6323 267.519 14.5302 268.26 14.5047 268.974 14.4791 269.715 14.4536 270.175 14.428 270.634 14.4025 271.095 14.4025 271.682 14.377 272.294 14.377 272.882 14.3514 273.648 14.3514 274.414 14.3514 275.206 14.3514 276.278 14.3514 277.351 14.3514 278.397 14.377 279.445 14.4025 280.466 14.428 281.513 14.4791 281.59 14.4791 281.666 14.4791 281.769 14.4791 282.815 14.5302 283.837 14.5813 284.858 14.6579 285.905 14.7345 286.927 14.8111 287.974 14.8877 314.302 17.186 339.736 26.5323 361.289 41.9052 362.182 42.5436 363.077 43.2076 363.97 43.8715 364.021 43.9226 364.047 43.9481 364.098 43.9736 365.808 45.2505 367.468 46.5528 369.128 47.9318L369.665 48.3659 369.69 48.3659C402.632 75.6132 423.649 116.778 423.649 162.769 423.649 216.855 394.588 264.251 351.253 290.221L351.228 290.221 350.742 290.476C344.869 293.975 338.766 297.039 332.509 299.669 328.5 301.355 324.465 302.861 320.328 304.164 318.567 304.726 316.804 305.262 315.017 305.772 312.744 306.386 310.471 306.973 308.173 307.509 307.969 307.535 307.79 307.586 307.611 307.637 307.075 307.739 306.564 307.867 306.028 307.969 304.879 308.224 303.755 308.454 302.581 308.658 302.529 308.658 302.453 308.684 302.376 308.684 301.303 308.914 300.206 309.092 299.133 309.271 297.754 309.475 296.4 309.68 295.047 309.884 293.413 310.088 291.753 310.267 290.119 310.446 289.302 310.522 288.484 310.624 287.642 310.675 286.058 310.803 284.475 310.931 282.892 311.007 282.177 311.033 281.437 311.058 280.721 311.109 280.236 311.109 279.802 311.136 279.317 311.136 278.729 311.161 278.142 311.161 277.555 311.187 276.763 311.187 275.998 311.187 275.206 311.187 274.133 311.187 273.086 311.187 272.014 311.161 270.966 311.136 269.945 311.109 268.898 311.058 268.822 311.058 268.745 311.058 268.669 311.058 267.621 311.007 266.574 310.956 265.553 310.88 264.506 310.803 263.484 310.726 262.463 310.65 238.433 308.556 215.195 300.589 194.945 287.565 193.566 286.672 192.212 285.777 190.859 284.833 189.352 283.786 187.897 282.739 186.466 281.666 186.415 281.641 186.364 281.615 186.339 281.564 185.471 280.926 184.628 280.287 183.785 279.623 182.943 278.96 182.126 278.295 181.283 277.632 181.104 277.478 180.925 277.325 180.746 277.172L144.229 277.172 168.157 285.318 168.183 285.318C168.872 285.931 169.562 286.544 170.277 287.131 172.269 288.817 174.286 290.451 176.354 292.034 177.299 292.749 178.244 293.464 179.189 294.154 179.802 294.613 180.44 295.047 181.053 295.507 183.223 297.039 185.42 298.521 187.641 299.976 189.812 301.355 192.008 302.708 194.255 303.985 202.274 308.581 210.65 312.514 219.307 315.681 219.919 315.91 220.558 316.115 221.17 316.345 221.86 316.575 222.55 316.83 223.264 317.06 224.286 317.417 225.307 317.749 226.329 318.055 226.636 318.158 226.916 318.234 227.197 318.336 228.372 318.694 229.521 319.026 230.696 319.384 233.275 320.098 235.879 320.788 238.484 321.376 242.417 322.295 246.426 323.061 250.461 323.673 251.125 323.775 251.789 323.878 252.478 323.98 253.091 324.057 253.704 324.133 254.317 324.21 254.777 324.287 255.262 324.338 255.721 324.389 256.386 324.491 257.024 324.542 257.662 324.618 258.734 324.746 259.807 324.823 260.905 324.925 261.518 324.976 262.106 325.027 262.693 325.078 263.714 325.155 264.761 325.231 265.782 325.282 266.319 325.308 266.83 325.359 267.366 325.359 268.03 325.41 268.669 325.435 269.332 325.435 270.583 325.487 271.835 325.538 273.111 325.538 273.801 325.563 274.516 325.563 275.206 325.563 276.227 325.563 277.223 325.538 278.244 325.538 278.397 325.538 278.551 325.538 278.704 325.512 279.649 325.487 280.568 325.487 281.488 325.435 281.666 325.435 281.794 325.435 281.947 325.41 282.866 325.384 283.76 325.333 284.68 325.282 284.858 325.282 285.037 325.282 285.216 325.257 286.058 325.206 286.901 325.155 287.718 325.078 288.101 325.053 288.484 325.027 288.842 325.001 289.429 324.95 290.017 324.899 290.604 324.823 291.012 324.797 291.421 324.746 291.83 324.721 292.519 324.644 293.183 324.567 293.872 324.491 294.562 324.414 295.252 324.338 295.915 324.236 297.882 324.006 299.823 323.724 301.738 323.393 317.596 320.813 332.892 315.91 347.244 308.735 347.295 308.735 347.346 308.71 347.397 308.684 349.057 307.841 350.742 306.973 352.402 306.079 352.964 305.772 353.525 305.466 354.088 305.134 354.956 304.675 355.799 304.189 356.641 303.678 357.586 303.142 358.557 302.581 359.476 301.993 360.063 301.661 360.651 301.303 361.238 300.92 362.029 300.41 362.846 299.899 363.638 299.389 363.664 299.389 363.689 299.363 363.715 299.338 364.532 298.801 365.349 298.265 366.166 297.729 366.243 297.678 366.32 297.601 366.396 297.55 367.29 296.937 368.183 296.324 369.077 295.711 369.971 295.073 370.84 294.435 371.733 293.771L372.857 292.953 376.56 290.221 376.381 290.221C413.919 260.369 438 214.327 438 162.769" fill="#004AAD" fill-rule="evenodd" transform="matrix(-1 0 0 1.00347 1738 835.656)"/></g></g></g></g></g></svg>