<svg width="1466" height="330" xmlns="http://www.w3.org/2000/svg" xmlns:xlink="http://www.w3.org/1999/xlink" overflow="hidden"><defs><clipPath id="clip0"><path d="M1293 837 1732 837 1732 884.57 1523.39 884.57 1517.9 881.231C1498.62 870.747 1476.53 864.791 1453.05 864.791 1377.92 864.791 1317.01 925.774 1317.01 1001 1317.01 1076.23 1377.92 1137.21 1453.05 1137.21 1485.92 1137.21 1516.07 1125.54 1539.59 1106.11L1545.86 1100.4 1732 1100.4 1732 1165 1293 1165Z" fill-rule="evenodd" clip-rule="evenodd"/></clipPath><clipPath id="clip1"><path d="M1293 1071.23 1307.77 1084.38 1308.45 1163 1293 1163ZM1596.72 835 1732 835 1732 1163 1609.52 1163 1609.47 1155.89C1608.26 1131.99 1601.54 1111.29 1572.82 1103.41 1492.55 1139.38 1399.14 1161.04 1322.5 1062.96L1320.31 1060.01 1313.88 1039.78C1295.67 965.488 1340.28 907.409 1396.9 869.323L1414.64 858.247 1426.23 857.394C1465.73 854.446 1502.83 853.195 1537.84 879.068 1597.64 875.813 1604.09 857.869 1597.19 836.253ZM1293 835 1312.93 835 1293 867.913Z" fill-rule="evenodd" clip-rule="evenodd"/></clipPath></defs><g transform="translate(-267 -835)"><path d="M4.48138 17.4063C0.191498 15.2603-1.66352 10.7253-0.349609 5.74495 0.230132 3.59886 2.43308 1.16943 4.75193 0.116685 9.00307-1.78644 13.6021-0.247766 16.0756 3.92282 17.0805 5.66396 17.235 6.31176 17.235 8.82218 17.235 11.3327 17.0805 11.9805 16.0756 13.7217 13.6021 17.8923 8.61661 19.4713 4.48138 17.4063Z" fill="#004AAD" fill-rule="evenodd" transform="matrix(1 0 0 -1 431 886)"/><path d="M5.50048 17.7173C1.88706 16.3793-0.188695 13.5007-0.419372 9.56768-0.649937 6.16192 0.157264 3.89141 2.34842 1.78298 4.42417-0.203682 6.23082-0.852466 9.26772-0.649721 12.1891-0.446976 14.534 1.05322 16.1101 3.76976 18.4165 7.70266 17.9168 11.9194 14.7646 15.2441 11.9201 18.2039 8.92165 19.0148 5.50048 17.7173Z" fill="#004AAD" fill-rule="evenodd" transform="matrix(1 0 0 -1 312 888)"/><path d="M11.9764 103.28C7.61784 102.057 2.94243 100.793 1.59525 100.385L-0.901058 99.7321-0.901058 49.6075-0.901058-0.517166 9.599-0.517166 20.0991-0.517166 20.0991 52.5032C20.0991 81.6643 20.0594 105.523 20.0198 105.483 19.9405 105.483 16.3349 104.463 11.9764 103.28Z" fill="#004AAD" fill-rule="evenodd" transform="matrix(1 0 0 -1 474 986)"/><path d="M68.7184 134.205C68.1681 134.042 63.6087 132.739 58.6169 131.354L49.4587 128.83 49.4587 79.9284C49.4587 28.706 49.4587 29.0318 47.7686 25.7336 44.8993 20.074 36.8417 17.2645 29.2556 19.2596 24.657 20.4811 21.5911 23.1684 19.901 27.5252 19.0362 29.7239 18.9969 30.294 18.8791 47.2324L18.7612 64.6187 8.73823 64.6187-1.28472 64.6187-1.16673 44.993C-1.00956 25.978-0.970271 25.2451-0.105499 22.2727 1.42736 17.0202 3.66781 13.0706 7.16597 9.40606 13.2976 3.05419 20.6478 0.0817949 31.4175-0.406856 48.0437-1.18044 60.6608 5.21216 66.3994 17.1831 67.8929 20.3183 69.5045 25.8558 69.5045 27.851L69.5045 28.7875 130.546 28.7875C172.957 28.7875 192.295 28.9096 193.906 29.2354 198.191 30.0497 200.785 31.9635 202.514 35.4651 204.637 39.8219 204.676 40.5955 204.715 69.2605L204.715 95.6453 203.654 95.401C203.025 95.2381 198.623 93.9759 193.828 92.6322L185.063 90.1485 185.063 68.609 185.063 47.1102 170.52 47.1102 155.977 47.1102 155.977 68.6497 155.977 90.1485 151.063 91.655C148.391 92.5101 143.831 93.6501 140.962 94.2609 136.324 95.1974 134.791 95.2788 127.284 95.2788 119.462 95.2788 118.558 95.2381 115.059 94.2609 100.438 90.1892 92.3409 79.7656 91.6334 64.008 91.319 56.8417 92.6161 52.2813 95.9571 48.7389L97.5293 47.1102 83.7331 47.1102 69.8975 47.1102 69.8189 90.7999 69.7011 134.53 68.7184 134.205ZM133.101 77.0375 135.931 76.3453 135.931 61.5241 135.931 46.6624 128.384 46.7846C121.152 46.9066 120.68 46.9473 118.636 47.9654 115.885 49.309 113.448 51.8335 112.072 54.7651 111.05 56.9231 110.972 57.4524 110.972 61.9721 110.972 66.5732 111.05 67.021 112.19 69.5047 115.571 76.8746 122.763 79.4805 133.101 77.0375Z" fill="#004AAD" fill-rule="evenodd" transform="matrix(1 0 0 -1 532 1015)"/><path d="M8.19915 102.872C3.21793 101.445-1.23484 100.14-1.68774 100.018L-2.5557 99.8137-2.5557 49.6483-2.5557-0.517166 7.44436-0.517166 17.4444-0.517166 17.4444 52.5032C17.4444 81.6643 17.4067 105.523 17.369 105.483 17.2934 105.483 13.1803 104.3 8.19915 102.872Z" fill="#004AAD" fill-rule="evenodd" transform="matrix(1 0 0 -1 1155 986)"/><path d="M9.29301 103.064C4.81796 101.753 0.770932 100.565 0.226097 100.442L-0.707859 100.196-0.707859 57.063C-0.707859 20.8931-0.591044 13.5198-0.124123 11.144 1.27675 4.18032 4.23422 0.944352 10.227-0.161615 11.9392-0.489344 20.5002-0.571276 37.0386-0.489344L61.3596-0.366446 63.8113 0.821454C67.6637 2.70578 69.9207 6.10561 70.8547 11.5127 71.3216 14.1752 71.4772 66.6071 71.0103 66.6071 70.5434 66.6071 53.6158 61.6917 52.7207 61.282L51.8258 60.8725 51.8258 39.3672 51.8258 17.8618 35.2875 17.8618 18.749 17.8618 18.749 61.6917C18.749 103.187 18.7101 105.522 18.0875 105.481 17.6984 105.481 13.7292 104.375 9.29301 103.064Z" fill="#004AAD" fill-rule="evenodd" transform="matrix(1 0 0 -1 380 986)"/><path d="M111.761 132.163C107.32 130.858 103.233 129.675 102.644 129.511L101.543 129.267 101.543 88.2649 101.543 47.2633 96.2383 47.2633C88.8897 47.2633 85.628 48.12 82.4842 50.8534 79.812 53.1382 79.2619 54.4845 78.7903 59.3394 78.2795 64.6023 77.6114 67.4173 75.9609 71.5787 72.4635 80.2686 65.1935 86.0211 54.9762 88.1017 51.4788 88.8361 42.8334 88.8361 39.2574 88.1017 28.372 85.9395 20.5126 79.0039 17.133 68.6821 16.1113 65.5406 16.072 65.0919 16.072 56.7283L16.072 48.0792 14.1072 48.0792C11.6708 48.0792 7.66242 47.1 5.73694 46.0801 3.61481 44.9378 1.53208 42.49 0.353215 39.7973-1.5331 35.5951-1.7688 32.5761-1.8082 15.3595L-1.8082-0.470041 7.97681-0.470041 17.8011-0.470041 17.9191 12.7076C18.0369 24.9061 18.0762 25.9669 18.8228 27.4764 19.4123 28.7411 20.0018 29.2307 21.2199 29.6794L22.7919 30.2506 25.3462 28.1291C30.4941 23.8046 36.8996 21.3568 44.5232 20.908 55.0155 20.2551 64.0146 23.1518 69.8306 29.0675 71.4024 30.6587 73.0529 32.4945 73.4459 33.1065L74.2319 34.2488 78.1615 32.1681C83.7418 29.2715 85.9816 28.9043 97.8887 28.9043 103.233 28.9043 108.656 29.0675 109.914 29.3123 114.276 30.0466 117.616 32.6169 119.306 36.4926 121.153 40.8988 121.192 41.5107 121.192 89.5296 121.192 132.163 121.153 134.57 120.524 134.529 120.131 134.529 116.201 133.469 111.761 132.163ZM52.6184 69.2532C55.605 68.1108 57.2555 66.479 58.788 63.256 60.0456 60.6041 60.0849 60.4409 60.0849 55.0148 60.0849 48.6096 59.4561 46.2433 57.0197 43.3467 55.1728 41.1436 52.8542 40.0012 49.514 39.5933 42.5976 38.6957 37.1746 41.4699 35.0133 46.9368 33.913 49.7111 33.4021 54.6884 33.913 58.1155 35.0526 66.1526 39.336 70.0692 46.9989 70.11 49.5532 70.11 51.0072 69.906 52.6184 69.2532Z" fill="#004AAD" fill-rule="evenodd" transform="matrix(1 0 0 -1 775 1015)"/><path d="M8.08535 103.066C3.61503 101.756-0.538802 100.568-1.13224 100.405L-2.20036 100.159-2.20036 57.6613C-2.20036 30.7625-2.04217 14.263-1.80477 12.6253-0.934389 7.09812 1.51834 2.88109 4.96009 1.07973 8.0458-0.557971 9.39086-0.598916 71.3822-0.47608 128.31-0.353243 131.395-0.312298 133.176 0.383657 135.668 1.40717 138.437 4.02745 139.664 6.48406 141.8 10.8647 141.8 10.2916 141.8 59.7493 141.8 90.7013 141.681 105.481 141.404 105.481 141.167 105.481 136.815 104.294 131.712 102.82 126.569 101.346 122.336 100.159 122.217 100.159 122.099 100.159 122.02 81.6532 122.02 59.0124L122.02 17.8658 105.998 17.8658C97.1755 17.8658 89.9755 17.9887 89.9755 18.1115 89.9755 18.2753 92.1118 20.6499 94.6832 23.4339 99.6282 28.6745 103.822 34.1198 105.048 36.9038 107.224 41.8168 104.771 49.1044 98.8766 55.1638 91.2415 62.9837 80.7184 67.4874 69.9974 67.4874 65.3294 67.4874 62.0854 66.9551 57.7338 65.4811 44.5601 61.0594 34.1953 50.169 34.1953 40.7114 34.1953 36.6991 37.6766 31.2538 45.5887 22.7379L50.0986 17.8658 33.8393 17.8658 17.5799 17.8658 17.5799 61.6736C17.5799 103.148 17.5403 105.481 16.9074 105.44 16.5118 105.399 12.5557 104.335 8.08535 103.066ZM75.4568 50.6602C80.3623 49.3501 84.8327 46.4841 86.9689 43.3317 88.314 41.2845 88.2744 39.9334 86.7316 37.5998 85.1492 35.1842 70.5909 19.9129 69.8788 19.9129 69.0085 19.9129 55.0832 34.6519 53.2634 37.5179 51.3645 40.4248 51.325 41.1207 53.0261 43.7819 54.0942 45.4606 58.4459 48.6132 61.1755 49.6776 66.081 51.52 70.8283 51.8475 75.4568 50.6602Z" fill="#004AAD" fill-rule="evenodd" transform="matrix(1 0 0 -1 910 986)"/><path d="M7.96789 103.106C3.42938 101.796-0.762863 100.609-1.33982 100.445L-2.37826 100.2-2.37826 49.8405-2.37826-0.51857 7.62174-0.51857 17.6217-0.51857 17.6217 52.5017C17.6217 102.738 17.5833 105.522 16.9679 105.481 16.5833 105.481 12.5448 104.417 7.96789 103.106Z" fill="#004AAD" fill-rule="evenodd" transform="matrix(1 0 0 -1 1066 986)"/><path d="M5.47923 17.801C3.5361 17.0726 2.0788 15.899 0.864434 14.1587-2.33366 9.4642-0.67391 2.98898 4.42673 0.439363 10.9036-2.75783 18.1902 1.65346 18.2307 8.8571 18.2711 15.4133 11.6728 20.0674 5.47923 17.801Z" fill="#004AAD" fill-rule="evenodd" transform="matrix(1 0 0 -1 419 909)"/><path d="M4.98884 17.5574C-0.0218317 15.2924-2.16344 9.95321 0.0186795 5.05903 3.81693-3.43512 15.9798-2.10033 17.9598 7.08138 19.5358 14.4834 11.8582 20.672 4.98884 17.5574Z" fill="#004AAD" fill-rule="evenodd" transform="matrix(1 0 0 -1 443 909)"/><path d="M6.23037 18.053C3.62387 17.0723 1.62819 15.3156 0.487858 13.0275-0.44891 11.0255-0.571051 10.4126-0.367365 8.04295-0.000823687 3.22186 3.50173-0.291812 8.22605-0.577837 11.3621-0.78214 13.3577-0.210208 15.2719 1.50582 20.4036 6.04101 19.3447 14.4166 13.2355 17.5627 11.6472 18.3798 7.81879 18.6658 6.23037 18.053Z" fill="#004AAD" fill-rule="evenodd" transform="matrix(1 0 0 -1 299 911)"/><path d="M5.27856 17.5187C2.83985 16.339 0.401147 13.6134-0.208559 11.376-1.26533 7.51144 0.48241 3.07726 3.89662 0.758528 5.40045-0.258447 6.21344-0.461866 8.61151-0.583917 12.0256-0.787336 13.8954-0.0143451 16.1714 2.50781 18.0411 4.58244 18.6508 6.53514 18.4476 9.66744 18.0411 16.0949 11.0501 20.2849 5.27856 17.5187Z" fill="#004AAD" fill-rule="evenodd" transform="matrix(1 0 0 -1 323 911)"/><path d="M5.66341 18.152C-0.943688 16.0009-3.33523 9.26374 0.393964 3.37876 2.66383-0.23333 8.2982-1.69443 12.3921 0.253624 14.7836 1.43071 16.8509 4.14984 17.4184 6.99086 18.3101 11.293 16.3645 15.3515 12.3921 17.3808 10.6491 18.2737 7.20367 18.6795 5.66341 18.152Z" fill="#004AAD" fill-rule="evenodd" transform="matrix(1 0 0 -1 642 911)"/><path d="M5.04096 17.911C-1.68348 15.7643-3.66845 6.93458 1.4762 2.03356 6.09418-2.34076 13.5884-1.12566 16.4645 4.46376 20.3938 12.038 13.1833 20.5032 5.04096 17.911Z" fill="#004AAD" fill-rule="evenodd" transform="matrix(1 0 0 -1 666 911)"/><path d="M5.25207 18.1554C-2.83692 15.3622-3.91031 4.3512 3.48853 0.505478 7.85894-1.76145 12.4209-0.506531 15.0277 3.62259 17.9796 8.31839 16.3695 14.8359 11.6542 17.3457 9.96739 18.2769 6.74712 18.6816 5.25207 18.1554Z" fill="#004AAD" fill-rule="evenodd" transform="matrix(1 0 0 -1 718 911)"/><path d="M46.5654 93.4024C42.32 92.2258 37.8762 90.968 36.7653 90.6434L34.6623 89.9943 34.6623 61.9179C34.6623 31.5693 34.6623 31.5288 32.5198 27.228 30.4566 23.1301 25.616 19.5597 20.8151 18.6266 16.3713 17.7746 9.78498 18.4237 4.11114 20.209 2.72246 20.6552 1.49254 20.9392 1.4131 20.8581 1.33377 20.7769 0.381504 17.2065-0.650093 12.9464L-2.55452 5.15638 0.381504 3.7769C3.75405 2.15396 9.22946 0.612283 13.9907-0.0775175 18.7519-0.767201 27.5999-0.320976 31.8849 0.774472 40.4551 3.04664 46.7638 8.03708 50.295 15.3807 52.517 20.0872 53.5882 24.1851 54.104 30.3927 54.3817 33.2329 54.5007 46.987 54.4214 65.3259L54.3024 95.5933 46.5654 93.4024Z" fill="#004AAD" fill-rule="evenodd" transform="matrix(1 0 0 -1 1086 1015)"/><path d="M5.08867 57.497 5.08867 48.4473 10.5354 47.9603C19.8897 47.1487 25.3364 45.1602 29.7964 40.8992 34.0985 36.7193 35.993 31.606 36.5062 22.4346L36.7824 17.8489 16.9689 17.8489-2.80513 17.8489-2.80513 8.71805-2.80513-0.453357 20.4027-0.331601C41.4792-0.209846 43.729-0.128676 45.3473 0.520568 49.531 2.22502 51.8202 4.94399 53.3595 9.93549 54.1093 12.4109 54.2278 13.669 54.1883 19.4722 54.1488 34.3656 50.202 45.3631 41.8739 53.6418 34.6511 60.8653 25.4942 64.7611 12.6273 66.1003 10.3776 66.3437 7.77259 66.5466 6.8253 66.5466L5.08867 66.5466 5.08867 57.497Z" fill="#004AAD" fill-rule="evenodd" transform="matrix(1 0 0 -1 1187 986)"/><path d="M88.3489 63.8028 78.8129 61.0619 78.8129 39.4626 78.8129 17.8633 55.7771 18.0269C30.7792 18.1906 30.1906 18.2315 25.9131 20.5223 19.5557 23.9586 17.5935 30.1356 17.5935 46.9896L17.5935 55.0075 12.8059 55.253C10.2158 55.4166 6.13451 55.5394 3.77991 55.5394-0.340598 55.5394-0.458288 55.4985-0.458288 54.6394-0.419058 54.1076-0.262138 49.3623-0.0658747 44.0852 0.444229 30.4629 1.70004 23.9586 5.15342 16.8815 7.46878 12.1363 12.6096 6.85916 17.2011 4.52733 21.0861 2.52291 24.3434 1.41842 28.9741 0.477457 31.7996-0.0951841 36.1948-0.217918 58.5634-0.381564 85.9943-0.586121 88.3882-0.463387 91.4099 1.17295 93.3721 2.19562 95.4519 4.4046 96.4723 6.45005 98.2774 10.1726 98.3952 11.6453 98.5129 39.9126 98.5914 57.5029 98.5129 66.5845 98.2382 66.5436 98.042 66.5436 93.5682 65.3164 88.3489 63.8028Z" fill="#004AAD" fill-rule="evenodd" transform="matrix(1 0 0 -1 268 986)"/><path d="M740.088 1077.93 729.192 1107.69 751.096 1107.69ZM627.942 1077.93 617.045 1107.69 638.949 1107.69ZM495.667 1077.93 484.77 1107.69 506.674 1107.69ZM355.723 1077.93 344.827 1107.69 366.731 1107.69ZM1143.21 1075.7 1143.21 1100 1162.45 1100C1164.23 1100 1165.6 1099.91 1166.56 1099.72 1167.53 1099.54 1168.66 1099.09 1169.95 1098.39 1171.25 1097.68 1172.2 1096.42 1172.79 1094.59 1173.38 1092.77 1173.68 1090.38 1173.68 1087.4 1173.68 1082.8 1172.66 1079.69 1170.62 1078.1 1168.58 1076.5 1165.86 1075.7 1162.45 1075.7ZM402.28 1075.7 402.28 1100 421.516 1100C423.295 1100 424.666 1099.91 425.63 1099.72 426.593 1099.54 427.724 1099.09 429.021 1098.39 430.318 1097.68 431.263 1096.42 431.856 1094.59 432.449 1092.77 432.746 1090.38 432.746 1087.4 432.746 1082.8 431.727 1079.69 429.688 1078.1 427.65 1076.5 424.926 1075.7 421.516 1075.7ZM277.673 1075.7 277.673 1123.19 289.126 1123.19C291.201 1123.19 293.091 1123.06 294.796 1122.8 296.501 1122.54 298.428 1121.91 300.578 1120.9 302.728 1119.9 304.507 1118.56 305.915 1116.89 307.323 1115.22 308.528 1112.8 309.529 1109.64 310.529 1106.49 311.03 1102.79 311.03 1098.55 311.03 1090.6 308.973 1084.8 304.859 1081.16 300.745 1077.52 295.612 1075.7 289.459 1075.7ZM974.51 1075.14C959.982 1075.14 952.717 1082.95 952.717 1098.55 952.717 1115.42 959.982 1123.86 974.51 1123.86 989.039 1123.86 996.303 1115.42 996.303 1098.55 996.303 1082.95 989.039 1075.14 974.51 1075.14ZM1138.32 1066.56 1163.34 1066.56C1168.67 1066.56 1173.34 1068.25 1177.35 1071.63 1181.35 1075.01 1183.35 1080.23 1183.35 1087.29 1183.35 1089.52 1183.07 1091.79 1182.52 1094.09 1181.96 1096.4 1180.76 1098.78 1178.9 1101.23 1177.05 1103.68 1174.6 1105.32 1171.57 1106.13 1173.79 1108.29 1175.51 1110.59 1176.74 1113.04 1177.96 1115.5 1179.24 1118.8 1180.57 1122.97L1181.57 1126.09C1181.72 1126.46 1181.79 1126.98 1181.79 1127.65 1181.79 1128.91 1181.31 1130.01 1180.35 1130.94 1179.39 1131.87 1178.27 1132.33 1177.01 1132.33 1174.72 1132.33 1173.23 1131.29 1172.57 1129.21L1169.9 1120.96C1167.38 1113.08 1163.34 1109.14 1157.78 1109.14L1143.21 1109.14 1143.21 1127.43C1143.21 1128.76 1142.73 1129.92 1141.77 1130.88 1140.8 1131.85 1139.65 1132.33 1138.32 1132.33 1136.99 1132.33 1135.86 1131.85 1134.93 1130.88 1134 1129.92 1133.54 1128.76 1133.54 1127.43L1133.54 1071.46C1133.54 1070.12 1134 1068.97 1134.93 1068.01 1135.86 1067.04 1136.99 1066.56 1138.32 1066.56ZM1082.73 1066.56 1117.19 1066.56C1118.45 1066.56 1119.53 1067 1120.42 1067.9 1121.31 1068.79 1121.75 1069.86 1121.75 1071.13 1121.75 1072.39 1121.31 1073.47 1120.42 1074.36 1119.53 1075.25 1118.45 1075.7 1117.19 1075.7L1087.62 1075.7 1087.62 1096.1 1110.97 1096.1C1112.23 1096.1 1113.3 1096.55 1114.19 1097.44 1115.08 1098.33 1115.53 1099.41 1115.53 1100.67 1115.53 1101.93 1115.08 1103.01 1114.19 1103.9 1113.3 1104.8 1112.23 1105.24 1110.97 1105.24L1087.62 1105.24 1087.62 1123.19 1117.19 1123.19C1118.45 1123.19 1119.53 1123.64 1120.42 1124.53 1121.31 1125.42 1121.75 1126.5 1121.75 1127.76 1121.75 1129.02 1121.31 1130.1 1120.42 1130.99 1119.53 1131.89 1118.45 1132.33 1117.19 1132.33L1082.73 1132.33C1081.39 1132.33 1080.26 1131.85 1079.34 1130.88 1078.41 1129.92 1077.95 1128.76 1077.95 1127.43L1077.95 1071.46C1077.95 1070.12 1078.41 1068.97 1079.34 1068.01 1080.26 1067.04 1081.39 1066.56 1082.73 1066.56ZM1017.49 1066.56C1019.86 1066.56 1021.42 1067.56 1022.16 1069.57L1041.06 1120.96 1059.96 1069.57C1060.71 1067.56 1062.26 1066.56 1064.63 1066.56 1066.04 1066.56 1067.19 1067 1068.08 1067.9 1068.97 1068.79 1069.41 1069.94 1069.41 1071.35 1069.41 1072.02 1069.3 1072.65 1069.08 1073.25L1049.07 1126.98C1048.47 1128.62 1047.46 1129.92 1046.01 1130.88 1044.56 1131.85 1042.92 1132.33 1041.06 1132.33 1039.21 1132.33 1037.56 1131.85 1036.11 1130.88 1034.67 1129.92 1033.65 1128.62 1033.06 1126.98L1013.04 1073.25C1012.82 1072.65 1012.71 1072.02 1012.71 1071.35 1012.71 1069.94 1013.15 1068.79 1014.04 1067.9 1014.93 1067 1016.08 1066.56 1017.49 1066.56ZM874.173 1066.56C875.655 1066.56 876.841 1067.19 877.731 1068.45L900.858 1106.02 923.985 1068.45C924.874 1067.19 926.06 1066.56 927.543 1066.56 928.729 1066.56 929.73 1066.97 930.545 1067.78 931.36 1068.6 931.768 1069.6 931.768 1070.79L931.768 1127.43C931.768 1128.76 931.305 1129.92 930.378 1130.88 929.452 1131.85 928.321 1132.33 926.987 1132.33 925.653 1132.33 924.504 1131.85 923.54 1130.88 922.577 1129.92 922.095 1128.76 922.095 1127.43L922.095 1090.19 907.195 1114.05C905.713 1116.43 903.601 1117.62 900.858 1117.62 898.115 1117.62 896.003 1116.43 894.52 1114.05L879.621 1090.19 879.621 1127.43C879.621 1128.76 879.139 1129.92 878.176 1130.88 877.212 1131.85 876.063 1132.33 874.729 1132.33 873.395 1132.33 872.264 1131.85 871.337 1130.88 870.411 1129.92 869.948 1128.76 869.948 1127.43L869.948 1070.79C869.948 1069.6 870.355 1068.6 871.171 1067.78 871.986 1066.97 872.987 1066.56 874.173 1066.56ZM781.197 1066.56C782.679 1066.56 783.865 1067.19 784.755 1068.45L807.882 1106.02 831.009 1068.45C831.899 1067.19 833.084 1066.56 834.567 1066.56 835.753 1066.56 836.754 1066.97 837.569 1067.78 838.385 1068.6 838.792 1069.6 838.792 1070.79L838.792 1127.43C838.792 1128.76 838.329 1129.92 837.402 1130.88 836.476 1131.85 835.345 1132.33 834.011 1132.33 832.677 1132.33 831.528 1131.85 830.564 1130.88 829.601 1129.92 829.119 1128.76 829.119 1127.43L829.119 1090.19 814.22 1114.05C812.737 1116.43 810.625 1117.62 807.882 1117.62 805.139 1117.62 803.027 1116.43 801.544 1114.05L786.645 1090.19 786.645 1127.43C786.645 1128.76 786.163 1129.92 785.2 1130.88 784.236 1131.85 783.087 1132.33 781.753 1132.33 780.419 1132.33 779.288 1131.85 778.362 1130.88 777.435 1129.92 776.972 1128.76 776.972 1127.43L776.972 1070.79C776.972 1069.6 777.379 1068.6 778.195 1067.78 779.01 1066.97 780.011 1066.56 781.197 1066.56ZM740.088 1066.56C741.941 1066.56 743.609 1067.04 745.092 1068.01 746.574 1068.97 747.612 1070.27 748.205 1071.91L768.219 1125.64C768.441 1126.24 768.552 1126.87 768.552 1127.54 768.552 1128.95 768.107 1130.1 767.218 1130.99 766.328 1131.89 765.179 1132.33 763.771 1132.33 761.399 1132.33 759.842 1131.33 759.101 1129.32L754.542 1116.84 725.745 1116.84 721.186 1129.32C720.445 1131.33 718.888 1132.33 716.516 1132.33 715.108 1132.33 713.959 1131.89 713.069 1130.99 712.18 1130.1 711.735 1128.95 711.735 1127.54 711.735 1126.87 711.846 1126.24 712.069 1125.64L732.083 1071.91C732.676 1070.27 733.695 1068.97 735.14 1068.01 736.586 1067.04 738.235 1066.56 740.088 1066.56ZM669.607 1066.56C670.941 1066.56 672.09 1067.04 673.053 1068.01 674.017 1068.97 674.499 1070.12 674.499 1071.46L674.499 1123.19 701.517 1123.19C702.778 1123.19 703.852 1123.64 704.742 1124.53 705.631 1125.42 706.076 1126.5 706.076 1127.76 706.076 1129.02 705.631 1130.1 704.742 1130.99 703.852 1131.89 702.778 1132.33 701.517 1132.33L669.607 1132.33C668.272 1132.33 667.142 1131.85 666.215 1130.88 665.289 1129.92 664.825 1128.76 664.825 1127.43L664.825 1071.46C664.825 1070.12 665.289 1068.97 666.215 1068.01 667.142 1067.04 668.272 1066.56 669.607 1066.56ZM627.942 1066.56C629.795 1066.56 631.463 1067.04 632.945 1068.01 634.428 1068.97 635.465 1070.27 636.058 1071.91L656.072 1125.64C656.295 1126.24 656.406 1126.87 656.406 1127.54 656.406 1128.95 655.961 1130.1 655.072 1130.99 654.182 1131.89 653.033 1132.33 651.625 1132.33 649.253 1132.33 647.696 1131.33 646.955 1129.32L642.396 1116.84 613.599 1116.84 609.04 1129.32C608.299 1131.33 606.742 1132.33 604.37 1132.33 602.961 1132.33 601.813 1131.89 600.923 1130.99 600.034 1130.1 599.589 1128.95 599.589 1127.54 599.589 1126.87 599.7 1126.24 599.922 1125.64L619.936 1071.91C620.529 1070.27 621.548 1068.97 622.994 1068.01 624.439 1067.04 626.089 1066.56 627.942 1066.56ZM537.331 1066.56C538.666 1066.56 539.815 1067.04 540.778 1068.01 541.742 1068.97 542.224 1070.12 542.224 1071.46L542.224 1123.19 569.242 1123.19C570.502 1123.19 571.577 1123.64 572.467 1124.53 573.356 1125.42 573.801 1126.5 573.801 1127.76 573.801 1129.02 573.356 1130.1 572.467 1130.99 571.577 1131.89 570.502 1132.33 569.242 1132.33L537.331 1132.33C535.997 1132.33 534.867 1131.85 533.94 1130.88 533.014 1129.92 532.55 1128.76 532.55 1127.43L532.55 1071.46C532.55 1070.12 533.014 1068.97 533.94 1068.01 534.867 1067.04 535.997 1066.56 537.331 1066.56ZM495.667 1066.56C497.52 1066.56 499.188 1067.04 500.67 1068.01 502.153 1068.97 503.19 1070.27 503.783 1071.91L523.797 1125.64C524.019 1126.24 524.131 1126.87 524.131 1127.54 524.131 1128.95 523.686 1130.1 522.796 1130.99 521.907 1131.89 520.758 1132.33 519.35 1132.33 516.978 1132.33 515.421 1131.33 514.68 1129.32L510.121 1116.84 481.323 1116.84 476.765 1129.32C476.023 1131.33 474.467 1132.33 472.095 1132.33 470.686 1132.33 469.537 1131.89 468.648 1130.99 467.758 1130.1 467.314 1128.95 467.314 1127.54 467.314 1126.87 467.425 1126.24 467.647 1125.64L487.661 1071.91C488.254 1070.27 489.273 1068.97 490.719 1068.01 492.164 1067.04 493.813 1066.56 495.667 1066.56ZM397.388 1066.56 422.405 1066.56C427.742 1066.56 432.412 1068.25 436.415 1071.63 440.418 1075.01 442.419 1080.23 442.419 1087.29 442.419 1089.52 442.141 1091.79 441.585 1094.09 441.029 1096.4 439.825 1098.78 437.972 1101.23 436.118 1103.68 433.672 1105.32 430.633 1106.13 432.857 1108.29 434.58 1110.59 435.803 1113.04 437.026 1115.5 438.305 1118.8 439.639 1122.97L440.64 1126.09C440.788 1126.46 440.862 1126.98 440.862 1127.65 440.862 1128.91 440.381 1130.01 439.417 1130.94 438.453 1131.87 437.342 1132.33 436.081 1132.33 433.784 1132.33 432.301 1131.29 431.634 1129.21L428.965 1120.96C426.445 1113.08 422.405 1109.14 416.846 1109.14L402.28 1109.14 402.28 1127.43C402.28 1128.76 401.798 1129.92 400.835 1130.88 399.871 1131.85 398.722 1132.33 397.388 1132.33 396.054 1132.33 394.923 1131.85 393.997 1130.88 393.07 1129.92 392.607 1128.76 392.607 1127.43L392.607 1071.46C392.607 1070.12 393.07 1068.97 393.997 1068.01 394.923 1067.04 396.054 1066.56 397.388 1066.56ZM355.723 1066.56C357.576 1066.56 359.244 1067.04 360.727 1068.01 362.209 1068.97 363.247 1070.27 363.84 1071.91L383.854 1125.64C384.076 1126.24 384.187 1126.87 384.187 1127.54 384.187 1128.95 383.743 1130.1 382.853 1130.99 381.964 1131.89 380.815 1132.33 379.406 1132.33 377.034 1132.33 375.478 1131.33 374.736 1129.32L370.178 1116.84 341.38 1116.84 336.821 1129.32C336.08 1131.33 334.523 1132.33 332.151 1132.33 330.743 1132.33 329.594 1131.89 328.705 1130.99 327.815 1130.1 327.37 1128.95 327.37 1127.54 327.37 1126.87 327.482 1126.24 327.704 1125.64L347.718 1071.91C348.311 1070.27 349.33 1068.97 350.775 1068.01 352.221 1067.04 353.87 1066.56 355.723 1066.56ZM272.781 1066.56 289.237 1066.56C293.017 1066.56 296.668 1067.11 300.189 1068.23 303.71 1069.34 307.045 1071.07 310.196 1073.41 313.346 1075.75 315.885 1079.06 317.812 1083.34 319.739 1087.61 320.703 1092.57 320.703 1098.22 320.703 1103.49 320.036 1108.2 318.702 1112.32 317.367 1116.45 315.663 1119.73 313.587 1122.19 311.511 1124.64 309.084 1126.65 306.304 1128.21 303.525 1129.77 300.856 1130.84 298.299 1131.44 295.741 1132.03 293.166 1132.33 290.571 1132.33L272.781 1132.33C271.447 1132.33 270.316 1131.85 269.39 1130.88 268.463 1129.92 268 1128.76 268 1127.43L268 1071.46C268 1070.12 268.463 1068.97 269.39 1068.01 270.316 1067.04 271.447 1066.56 272.781 1066.56ZM1215.87 1066C1222.1 1066 1226.92 1066.45 1230.33 1067.34 1231.36 1067.56 1232.22 1068.1 1232.88 1068.95 1233.55 1069.81 1233.88 1070.79 1233.88 1071.91 1233.88 1073.17 1233.42 1074.25 1232.49 1075.14 1231.57 1076.03 1230.47 1076.48 1229.21 1076.48 1222.99 1075.59 1218.87 1075.14 1216.87 1075.14 1215.02 1075.14 1213.52 1075.16 1212.37 1075.2 1211.22 1075.23 1209.74 1075.42 1207.92 1075.75 1206.11 1076.09 1204.68 1076.53 1203.64 1077.09 1202.6 1077.65 1201.68 1078.52 1200.86 1079.71 1200.05 1080.9 1199.64 1082.31 1199.64 1083.95 1199.64 1085.96 1201.03 1087.81 1203.81 1089.52 1206.59 1091.23 1209.94 1092.79 1213.87 1094.2 1217.8 1095.62 1221.75 1097.16 1225.71 1098.83 1229.68 1100.5 1233.05 1102.7 1235.83 1105.41 1238.61 1108.12 1240 1111.26 1240 1114.83 1240 1120.92 1237.76 1125.48 1233.27 1128.49 1228.79 1131.49 1222.77 1133 1215.21 1133 1208.24 1133 1201.79 1131.77 1195.86 1129.32 1193.86 1128.65 1192.86 1127.35 1192.86 1125.42 1192.86 1124.3 1193.26 1123.36 1194.08 1122.58 1194.89 1121.8 1195.82 1121.41 1196.86 1121.41 1203.23 1123.04 1209.2 1123.86 1214.76 1123.86 1225.29 1123.86 1230.55 1120.92 1230.55 1115.05 1230.55 1112.9 1229.16 1110.96 1226.38 1109.25 1223.6 1107.55 1220.25 1106.04 1216.32 1104.74 1212.39 1103.44 1208.44 1102.01 1204.48 1100.45 1200.51 1098.89 1197.14 1096.77 1194.36 1094.09 1191.58 1091.42 1190.19 1088.3 1190.19 1084.73 1190.19 1080.94 1190.87 1077.74 1192.24 1075.14 1193.62 1072.54 1195.6 1070.61 1198.19 1069.34 1200.79 1068.08 1203.47 1067.21 1206.25 1066.72 1209.03 1066.24 1212.24 1066 1215.87 1066ZM974.51 1066C978.291 1066 981.96 1066.58 985.518 1067.73 989.076 1068.88 992.43 1070.66 995.58 1073.08 998.731 1075.49 1001.25 1078.86 1003.14 1083.17 1005.03 1087.48 1005.98 1092.5 1005.98 1098.22 1005.98 1103.64 1005.25 1108.47 1003.81 1112.71 1002.36 1116.95 1000.55 1120.31 998.36 1122.8 996.173 1125.29 993.635 1127.33 990.744 1128.93 987.853 1130.53 985.092 1131.61 982.46 1132.16 979.829 1132.72 977.179 1133 974.51 1133 971.842 1133 969.192 1132.72 966.56 1132.16 963.929 1131.61 961.168 1130.53 958.277 1128.93 955.386 1127.33 952.847 1125.29 950.661 1122.8 948.474 1120.31 946.658 1116.95 945.212 1112.71 943.767 1108.47 943.044 1103.64 943.044 1098.22 943.044 1092.5 943.989 1087.48 945.879 1083.17 947.77 1078.86 950.29 1075.49 953.44 1073.08 956.59 1070.66 959.945 1068.88 963.503 1067.73 967.061 1066.58 970.73 1066 974.51 1066Z" fill="#333333" fill-rule="evenodd"/><g clip-path="url(#clip0)"><g><g><path d="M123.494 257.738 182.413 257.738C186.56 261.885 191.013 265.775 195.697 269.358 205.679 276.986 216.736 283.231 228.637 287.838 240.513 292.419 253.234 295.363 266.492 296.386 266.825 296.412 267.183 296.438 267.541 296.463 268.232 296.514 268.923 296.54 269.64 296.566 270.305 296.617 270.997 296.617 271.662 296.642 272.379 296.668 273.07 296.694 273.761 296.694 274.452 296.694 275.143 296.719 275.834 296.719 276.551 296.719 277.267 296.694 277.984 296.694 278.701 296.694 279.417 296.668 280.134 296.642 280.543 296.642 280.953 296.617 281.337 296.591 281.797 296.591 282.258 296.566 282.719 296.54 284.024 296.463 285.33 296.386 286.635 296.284 287.275 296.233 287.94 296.182 288.606 296.105 288.913 296.079 289.246 296.054 289.578 296.003 290.116 295.951 290.653 295.9 291.165 295.849 292.291 295.721 293.417 295.567 294.518 295.414 294.851 295.363 295.158 295.311 295.491 295.286 295.951 295.209 296.438 295.132 296.898 295.056 297.615 294.953 298.306 294.851 298.997 294.697 299.663 294.595 300.328 294.467 300.993 294.339 301.582 294.236 302.171 294.109 302.76 294.006 303.169 293.904 303.579 293.827 303.988 293.75 305.037 293.52 306.112 293.289 307.136 293.034 307.776 292.88 308.416 292.726 309.056 292.547 309.107 292.547 309.158 292.522 309.235 292.496 309.849 292.342 310.438 292.189 311.052 292.01 311.718 291.831 312.358 291.651 313.023 291.472 313.688 291.267 314.328 291.088 314.994 290.884 315.634 290.679 316.299 290.474 316.939 290.269 317.579 290.065 318.244 289.86 318.884 289.629 320.062 289.22 321.239 288.81 322.416 288.35 323.158 288.094 323.875 287.812 324.592 287.531 325.846 287.044 327.1 286.532 328.354 285.995 328.968 285.739 329.583 285.457 330.197 285.176 330.811 284.92 331.426 284.638 332.04 284.357 333.089 283.845 334.164 283.333 335.214 282.821 335.393 282.744 335.597 282.642 335.777 282.54 336.928 281.951 338.08 281.337 339.232 280.722 339.181 280.671 339.104 280.595 339.053 280.543 350.11 274.682 360.22 267.336 369.152 258.737 369.28 258.583 369.408 258.481 369.536 258.378 394.465 234.166 409.95 200.304 409.95 162.808 409.95 93.267 356.636 36.1653 288.631 30.1761 288.043 30.1249 287.454 30.0738 286.865 30.0226 286.277 29.9714 285.662 29.9202 285.048 29.8946 284.971 29.869 284.894 29.869 284.792 29.869 284.331 29.8434 283.871 29.8178 283.41 29.7922 281.644 29.6898 279.878 29.613 278.086 29.5875 277.344 29.5875 276.602 29.5619 275.834 29.5619 274.887 29.5619 273.965 29.5875 273.018 29.613 272.097 29.613 271.176 29.6386 270.254 29.6898 269.256 29.741 268.258 29.7922 267.26 29.8434 266.492 29.8946 265.724 29.9458 264.956 29.997 264.777 30.0226 264.623 30.0482 264.444 30.0482 263.881 30.0993 263.293 30.1505 262.729 30.2017 262.55 30.2273 262.371 30.2529 262.192 30.2785 261.859 30.3041 261.552 30.3297 261.245 30.3553 260.554 30.4321 259.863 30.5089 259.197 30.6112 258.276 30.7136 257.38 30.8416 256.484 30.9696 255.614 31.0975 254.795 31.2255 253.95 31.3535 253.822 31.3791 253.695 31.4047 253.567 31.4303 252.747 31.5582 251.928 31.7118 251.084 31.8654 250.367 31.9934 249.651 32.1469 248.908 32.3005 248.678 32.3517 248.422 32.3773 248.166 32.4541 247.373 32.6076 246.579 32.7868 245.786 32.966 227.358 37.2147 210.363 45.277 195.697 56.2827L90.1701 56.2827 90.1701 72.5353 106.269 72.5353 106.269 88.6856 79.3435 88.6856 79.3435 88.6344 73.0728 88.6344 73.0728 96.7223C73.0216 97.2086 73.0216 97.6693 73.0728 98.1556L73.0728 104.733 80.2905 104.733C80.6488 104.785 80.9816 104.785 81.3655 104.785 81.7238 104.785 82.0822 104.785 82.4405 104.733L239.592 104.733C239.643 104.733 239.694 104.733 239.745 104.733 239.771 104.759 239.797 104.733 239.822 104.759L239.873 104.759C239.925 104.785 239.976 104.785 240.027 104.81L240.053 104.81C240.181 104.861 240.283 104.913 240.385 105.015 240.462 105.066 240.539 105.143 240.59 105.22 240.59 105.22 240.616 105.22 240.616 105.245L240.872 105.245 240.872 183.642C240.872 183.693 240.872 183.77 240.846 183.847 240.795 184.179 240.616 184.435 240.411 184.64 240.385 184.64 240.385 184.64 240.385 184.64 240.283 184.717 240.181 184.794 240.053 184.819L240.027 184.845C239.976 184.87 239.925 184.87 239.873 184.87L239.848 184.896 239.822 184.896C239.771 184.896 239.72 184.896 239.669 184.896 239.643 184.896 239.617 184.922 239.592 184.922L236.725 184.922 236.725 185.485 74.7109 185.485 74.5829 185.459 72.9448 185.459C72.8937 185.459 72.8681 185.485 72.8169 185.485L63.7564 185.485 63.7564 193.573C63.7052 194.084 63.7052 194.622 63.7564 195.108L63.7564 201.635 70.9741 201.635C71.3068 201.661 71.6651 201.686 72.049 201.686 72.3818 201.686 72.7657 201.686 73.124 201.635L106.627 201.635C103.914 205.397 102.328 209.979 102.328 214.944L89.2487 214.944 89.2487 231.094 115.15 231.094C112.489 229.456 110.262 227.178 108.675 224.465 107.063 221.65 106.141 218.399 106.141 214.944 106.141 209.748 108.214 205.065 111.567 201.635 112.233 200.944 112.949 200.304 113.717 199.741 116.891 197.335 120.858 195.927 125.132 195.927 125.414 195.927 125.695 195.953 125.977 195.953 129.944 196.132 133.579 197.514 136.522 199.741 136.778 199.92 137.008 200.099 137.239 200.304 137.751 200.714 138.237 201.174 138.672 201.635 142.05 205.039 144.124 209.748 144.124 214.944 144.124 216.352 143.97 217.708 143.689 219.039 143.253 220.959 142.562 222.776 141.59 224.465 140.489 226.308 139.107 227.997 137.469 229.354 134.167 232.221 129.842 233.935 125.132 233.935 124.774 233.935 124.441 233.935 124.083 233.91L124.083 244.429 110.339 244.429C110.236 244.455 110.108 244.48 110.006 244.48 109.878 244.48 109.75 244.455 109.648 244.429L107.267 244.429 107.267 257.738ZM339.206 214.944 316.401 214.944C316.401 210.056 314.866 205.5 312.255 201.788 308.262 196.158 301.787 192.395 294.416 192.139 294.134 192.139 293.878 192.139 293.597 192.139 286.916 192.139 280.927 195.006 276.755 199.587 273.044 203.631 270.792 209.032 270.792 214.944L147.784 214.944 147.937 214.944C147.937 209.979 146.35 205.397 143.663 201.635L255.614 201.635 255.614 104.733 294.211 104.733C296.898 104.785 299.535 105.117 302.068 105.68 318.987 109.52 331.605 124.672 331.605 142.742L331.605 199.741C335.802 199.741 339.206 203.145 339.206 207.343ZM306.368 228.996C306.138 229.226 305.908 229.405 305.677 229.61 302.452 232.272 298.332 233.884 293.827 233.935 293.827 233.935 293.827 233.935 293.801 233.935L293.597 233.935C286.584 233.935 280.441 230.122 277.165 224.465 277.011 224.209 276.883 223.979 276.755 223.723 275.373 221.087 274.605 218.092 274.605 214.944 274.605 211.77 275.373 208.776 276.755 206.14 279.929 200.074 286.277 195.927 293.597 195.927 294.109 195.927 294.646 195.953 295.132 196.004 302.529 196.593 308.749 201.43 311.308 208.059 312.153 210.184 312.613 212.513 312.613 214.944 312.613 220.498 310.208 225.515 306.368 228.996" fill="#004AAD" fill-rule="evenodd" transform="matrix(-1 0 0 1.00118 1732 837.656)"/><path d="M40.8491 88.5832 24.7501 88.5832 24.7501 104.733 40.8491 104.733 40.8491 88.5832" fill="#004AAD" fill-rule="evenodd" transform="matrix(-1 0 0 1.00118 1732 837.656)"/><path d="M0 137.008 16.1247 137.008 16.1247 120.858 0 120.858 0 137.008" fill="#004AAD" fill-rule="evenodd" transform="matrix(-1 0 0 1.00118 1732 837.656)"/><path d="M31.5326 201.635 47.6573 201.635 47.6573 185.485 31.5326 185.485 31.5326 201.635" fill="#004AAD" fill-rule="evenodd" transform="matrix(-1 0 0 1.00118 1732 837.656)"/><path d="M134.628 214.944C134.628 209.697 130.379 205.449 125.132 205.449 119.885 205.449 115.637 209.697 115.637 214.944 115.637 220.191 119.885 224.44 125.132 224.44 130.379 224.44 134.628 220.191 134.628 214.944" fill="#004AAD" fill-rule="evenodd" transform="matrix(-1 0 0 1.00118 1732 837.656)"/><path d="M74.071 72.433 74.071 56.2827 72.6889 56.2827 72.305 56.3339 63.7564 56.3339 63.7564 56.3851 57.9464 56.3851 57.9464 72.5353 74.071 72.5353 74.071 72.433" fill="#004AAD" fill-rule="evenodd" transform="matrix(-1 0 0 1.00118 1732 837.656)"/><path d="M32.2237 137.008 70.7693 137.008 70.7693 120.909 32.2237 120.909 32.2237 137.008" fill="#004AAD" fill-rule="evenodd" transform="matrix(-1 0 0 1.00118 1732 837.656)"/><path d="M300.149 116.942C299.586 116.814 299.048 116.686 298.485 116.584 296.924 116.302 295.286 116.149 293.597 116.149L267.004 116.149 267.004 156.998 320.215 156.998 320.215 142.742C320.215 135.396 317.221 128.741 312.409 123.929 309.081 120.602 304.858 118.145 300.149 116.942" fill="#004AAD" fill-rule="evenodd" transform="matrix(-1 0 0 1.00118 1732 837.656)"/><path d="M297.564 206.293C296.668 205.884 295.695 205.628 294.697 205.5 294.672 205.5 294.672 205.5 294.646 205.5 294.441 205.474 294.236 205.474 294.032 205.474 293.878 205.449 293.75 205.449 293.597 205.449 288.35 205.449 284.101 209.697 284.101 214.944 284.101 220.191 288.35 224.44 293.597 224.44 297.103 224.44 300.123 222.571 301.787 219.782 302.632 218.348 303.118 216.71 303.118 214.944 303.118 211.105 300.84 207.803 297.564 206.293" fill="#004AAD" fill-rule="evenodd" transform="matrix(-1 0 0 1.00118 1732 837.656)"/><path d="M56.9226 231.094 73.0728 231.094 73.0728 214.944 56.9226 214.944 56.9226 231.094" fill="#004AAD" fill-rule="evenodd" transform="matrix(-1 0 0 1.00118 1732 837.656)"/><path d="M86.894 169.334 86.894 153.235 54.6191 153.235 54.6191 169.386 86.894 169.386 86.894 169.334" fill="#004AAD" fill-rule="evenodd" transform="matrix(-1 0 0 1.00118 1732 837.656)"/><g><path d="M439 163.141C439 118.478 420.981 77.987 391.829 48.4763L391.931 48.4763 389.781 46.4544 388.323 45.0722C387.401 44.1508 386.454 43.2806 385.482 42.4104 385.482 42.4104 385.456 42.3848 385.43 42.3848 383.971 41.0539 382.513 39.7485 381.002 38.4944 376.523 34.6808 371.84 31.1487 367.002 27.8726 365.415 26.7976 363.777 25.7483 362.165 24.7245 362.114 24.6989 362.088 24.6733 362.062 24.6733 359.631 23.1376 357.174 21.7043 354.666 20.2966 349.7 17.558 344.607 15.0753 339.385 12.8741 339.36 12.8485 339.309 12.8229 339.283 12.7973 337.568 12.0807 335.828 11.3896 334.087 10.7242 333.217 10.3914 332.321 10.0587 331.426 9.72598 331.374 9.70039 331.349 9.70039 331.323 9.67479 329.557 9.03492 327.766 8.44624 325.974 7.85757 324.131 7.26889 322.288 6.70581 320.445 6.19391 319.806 5.98915 319.166 5.80999 318.526 5.65642 317.86 5.47727 317.221 5.2981 316.555 5.11894 315.915 4.96537 315.275 4.78621 314.61 4.63264 310.796 3.71123 306.931 2.91779 303.041 2.25233 302.632 2.17555 302.222 2.12436 301.812 2.04757 301.429 1.99639 301.045 1.9196 300.661 1.86841 299.97 1.76603 299.304 1.66365 298.613 1.56127 298.178 1.51009 297.743 1.4333 297.282 1.38212 296.642 1.30533 296.003 1.22854 295.363 1.15176 294.723 1.07497 294.083 0.998194 293.417 0.921409 292.701 0.844623 291.984 0.767844 291.242 0.716651 290.679 0.639867 290.116 0.588678 289.553 0.563083 288.119 0.435109 286.712 0.332731 285.278 0.255947 284.766 0.230352 284.229 0.204757 283.691 0.179163 283.052 0.153568 282.386 0.102379 281.721 0.102379 281.081 0.0511894 280.441 0.0511894 279.775 0.0255947 278.47 0 277.139-0.0255947 275.834-0.0255947 274.836-0.0255947 273.812 0 272.814 0.0255947 272.635 0.0255947 272.507 0.0255947 272.353 0.0255947 271.406 0.0511894 270.485 0.0511894 269.538 0.102379 269.384 0.102379 269.23 0.102379 269.077 0.127973 268.181 0.153568 267.26 0.204757 266.364 0.255947 266.159 0.281542 265.98 0.281542 265.801 0.281542 264.956 0.332731 264.112 0.383921 263.293 0.460704 262.934 0.486299 262.55 0.511894 262.192 0.537488 261.578 0.588678 261.015 0.639867 260.426 0.716651 259.991 0.742244 259.581 0.793437 259.172 0.81903 258.506 0.895816 257.815 0.972601 257.124 1.04938 256.459 1.12617 255.768 1.20295 255.077 1.27973 254.411 1.38212 253.72 1.4589 253.055 1.56127 233.091 4.3255 213.972 10.7754 196.388 20.6549 195.825 20.962 195.236 21.2948 194.673 21.6275 193.573 22.2674 192.472 22.9328 191.371 23.5983 190.194 24.315 189.017 25.0572 187.839 25.7994 187.404 26.081 186.995 26.3369 186.56 26.6441 185.843 27.0792 185.152 27.5655 184.461 28.0518 184.359 28.103 184.282 28.1542 184.205 28.2053L163.038 35.423 199.664 35.423 200.125 35.1415C200.841 34.7064 201.558 34.2969 202.275 33.8874 203.631 33.0939 204.988 32.3517 206.396 31.6094 207.24 31.1487 208.11 30.7136 208.981 30.2785 210.209 29.6386 211.438 29.05 212.666 28.4869 213.588 28.0518 214.509 27.6167 215.456 27.2072 215.584 27.1304 215.738 27.0536 215.891 27.0024 216.736 26.6441 217.555 26.2601 218.399 25.9274 219.321 25.5179 220.268 25.1596 221.189 24.7757 221.24 24.7501 221.266 24.7501 221.317 24.7245 222.29 24.3405 223.262 23.9822 224.235 23.5983 225.233 23.24 226.206 22.9072 227.204 22.5489 233.116 20.5013 239.157 18.8377 245.299 17.5324 245.299 17.5324 245.325 17.5324 245.351 17.5324 247.245 17.1228 249.164 16.7645 251.084 16.4574 251.391 16.3806 251.698 16.3294 252.031 16.2782 252.875 16.1502 253.746 16.0223 254.642 15.8943 254.744 15.8687 254.872 15.8431 254.974 15.8431 255.921 15.7151 256.843 15.5872 257.764 15.4848 258.813 15.3568 259.863 15.2288 260.912 15.1265 261.731 15.0497 262.55 14.9729 263.395 14.8961 264.956 14.7681 266.543 14.6658 268.13 14.5634 268.872 14.5378 269.589 14.5122 270.331 14.4866 270.792 14.461 271.252 14.4354 271.713 14.4354 272.302 14.4098 272.916 14.4098 273.505 14.3842 274.273 14.3842 275.04 14.3842 275.834 14.3842 276.909 14.3842 277.984 14.3842 279.033 14.4098 280.083 14.4354 281.106 14.461 282.156 14.5122 282.233 14.5122 282.309 14.5122 282.412 14.5122 283.461 14.5634 284.485 14.6146 285.509 14.6914 286.558 14.7681 287.582 14.8449 288.631 14.9217 315.019 17.2252 340.512 26.5929 362.114 42.0009 363.009 42.6407 363.905 43.3062 364.801 43.9717 364.852 44.0229 364.878 44.0484 364.929 44.074 366.644 45.3538 368.307 46.6591 369.971 48.0412L370.509 48.4763 370.534 48.4763C403.551 75.7859 424.616 117.044 424.616 163.141 424.616 217.35 395.489 264.854 352.055 290.884L352.029 290.884 351.543 291.14C345.656 294.646 339.539 297.717 333.268 300.354 329.25 302.043 325.206 303.553 321.06 304.858 319.294 305.421 317.528 305.959 315.736 306.471 313.458 307.085 311.18 307.674 308.877 308.211 308.672 308.237 308.493 308.288 308.314 308.339 307.776 308.442 307.264 308.569 306.727 308.672 305.575 308.928 304.449 309.158 303.271 309.363 303.22 309.363 303.143 309.389 303.067 309.389 301.992 309.619 300.891 309.798 299.816 309.977 298.434 310.182 297.077 310.387 295.721 310.591 294.083 310.796 292.419 310.975 290.781 311.155 289.962 311.231 289.143 311.334 288.299 311.385 286.712 311.513 285.125 311.641 283.538 311.718 282.821 311.743 282.079 311.769 281.362 311.82 280.876 311.82 280.441 311.846 279.955 311.846 279.366 311.871 278.777 311.871 278.189 311.897 277.395 311.897 276.627 311.897 275.834 311.897 274.759 311.897 273.71 311.897 272.635 311.871 271.585 311.846 270.561 311.82 269.512 311.769 269.435 311.769 269.358 311.769 269.282 311.769 268.232 311.718 267.183 311.666 266.159 311.59 265.11 311.513 264.086 311.436 263.062 311.359 238.978 309.261 215.686 301.275 195.39 288.222 194.008 287.326 192.651 286.43 191.295 285.483 189.785 284.434 188.326 283.384 186.892 282.309 186.841 282.284 186.79 282.258 186.764 282.207 185.894 281.567 185.05 280.927 184.205 280.262 183.36 279.596 182.541 278.931 181.697 278.265 181.518 278.112 181.338 277.958 181.159 277.805L144.559 277.805 168.541 285.969 168.567 285.969C169.258 286.584 169.949 287.198 170.665 287.787 172.662 289.476 174.684 291.114 176.757 292.701 177.704 293.417 178.651 294.134 179.598 294.825 180.212 295.286 180.852 295.721 181.466 296.182 183.642 297.717 185.843 299.202 188.07 300.661 190.245 302.043 192.446 303.399 194.699 304.679 202.735 309.286 211.131 313.228 219.807 316.401 220.421 316.632 221.061 316.837 221.676 317.067 222.367 317.297 223.058 317.553 223.774 317.784 224.798 318.142 225.822 318.475 226.846 318.782 227.153 318.884 227.434 318.961 227.716 319.063 228.893 319.422 230.045 319.754 231.222 320.113 233.807 320.829 236.418 321.52 239.029 322.109 242.97 323.03 246.989 323.798 251.033 324.413 251.698 324.515 252.364 324.617 253.055 324.72 253.669 324.797 254.283 324.873 254.897 324.95 255.358 325.027 255.844 325.078 256.305 325.129 256.971 325.232 257.61 325.283 258.25 325.36 259.325 325.488 260.4 325.564 261.501 325.667 262.115 325.718 262.704 325.769 263.293 325.82 264.316 325.897 265.366 325.974 266.389 326.025 266.927 326.051 267.439 326.102 267.976 326.102 268.642 326.153 269.282 326.179 269.947 326.179 271.201 326.23 272.455 326.281 273.735 326.281 274.426 326.307 275.143 326.307 275.834 326.307 276.858 326.307 277.856 326.281 278.88 326.281 279.033 326.281 279.187 326.281 279.34 326.255 280.287 326.23 281.209 326.23 282.13 326.179 282.309 326.179 282.437 326.179 282.591 326.153 283.512 326.127 284.408 326.076 285.33 326.025 285.509 326.025 285.688 326.025 285.867 325.999 286.712 325.948 287.556 325.897 288.375 325.82 288.759 325.795 289.143 325.769 289.501 325.744 290.09 325.692 290.679 325.641 291.267 325.564 291.677 325.539 292.087 325.488 292.496 325.462 293.187 325.385 293.853 325.308 294.544 325.232 295.235 325.155 295.926 325.078 296.591 324.976 298.562 324.745 300.507 324.464 302.427 324.131 318.321 321.546 333.652 316.632 348.036 309.44 348.088 309.44 348.139 309.414 348.19 309.389 349.854 308.544 351.543 307.674 353.207 306.778 353.77 306.471 354.333 306.164 354.896 305.831 355.766 305.37 356.611 304.884 357.455 304.372 358.402 303.834 359.375 303.271 360.296 302.683 360.885 302.35 361.474 301.992 362.062 301.608 362.856 301.096 363.675 300.584 364.468 300.072 364.494 300.072 364.519 300.046 364.545 300.021 365.364 299.483 366.183 298.946 367.002 298.408 367.079 298.357 367.156 298.28 367.233 298.229 368.128 297.615 369.024 297.001 369.92 296.386 370.816 295.747 371.686 295.107 372.582 294.441L373.708 293.622 377.419 290.884 377.24 290.884C414.864 260.963 439 214.816 439 163.141" fill="#333333" fill-rule="evenodd" transform="matrix(-1 0 0 1.00118 1732 837.656)"/></g></g></g></g><g clip-path="url(#clip1)"><g><g><path d="M123.494 257.738 182.413 257.738C186.56 261.885 191.013 265.775 195.697 269.358 205.679 276.986 216.736 283.231 228.637 287.838 240.513 292.419 253.234 295.363 266.492 296.386 266.825 296.412 267.183 296.438 267.541 296.463 268.232 296.514 268.923 296.54 269.64 296.566 270.305 296.617 270.997 296.617 271.662 296.642 272.379 296.668 273.07 296.694 273.761 296.694 274.452 296.694 275.143 296.719 275.834 296.719 276.551 296.719 277.267 296.694 277.984 296.694 278.701 296.694 279.417 296.668 280.134 296.642 280.543 296.642 280.953 296.617 281.337 296.591 281.797 296.591 282.258 296.566 282.719 296.54 284.024 296.463 285.33 296.386 286.635 296.284 287.275 296.233 287.94 296.182 288.606 296.105 288.913 296.079 289.246 296.054 289.578 296.003 290.116 295.951 290.653 295.9 291.165 295.849 292.291 295.721 293.417 295.567 294.518 295.414 294.851 295.363 295.158 295.311 295.491 295.286 295.951 295.209 296.438 295.132 296.898 295.056 297.615 294.953 298.306 294.851 298.997 294.697 299.663 294.595 300.328 294.467 300.993 294.339 301.582 294.236 302.171 294.109 302.76 294.006 303.169 293.904 303.579 293.827 303.988 293.75 305.037 293.52 306.112 293.289 307.136 293.034 307.776 292.88 308.416 292.726 309.056 292.547 309.107 292.547 309.158 292.522 309.235 292.496 309.849 292.342 310.438 292.189 311.052 292.01 311.718 291.831 312.358 291.651 313.023 291.472 313.688 291.267 314.328 291.088 314.994 290.884 315.634 290.679 316.299 290.474 316.939 290.269 317.579 290.065 318.244 289.86 318.884 289.629 320.062 289.22 321.239 288.81 322.416 288.35 323.158 288.094 323.875 287.812 324.592 287.531 325.846 287.044 327.1 286.532 328.354 285.995 328.968 285.739 329.583 285.457 330.197 285.176 330.811 284.92 331.426 284.638 332.04 284.357 333.089 283.845 334.164 283.333 335.214 282.821 335.393 282.744 335.597 282.642 335.777 282.54 336.928 281.951 338.08 281.337 339.232 280.722 339.181 280.671 339.104 280.595 339.053 280.543 350.11 274.682 360.22 267.336 369.152 258.737 369.28 258.583 369.408 258.481 369.536 258.378 394.465 234.166 409.95 200.304 409.95 162.808 409.95 93.267 356.636 36.1653 288.631 30.1761 288.043 30.1249 287.454 30.0738 286.865 30.0226 286.277 29.9714 285.662 29.9202 285.048 29.8946 284.971 29.869 284.894 29.869 284.792 29.869 284.331 29.8434 283.871 29.8178 283.41 29.7922 281.644 29.6898 279.878 29.613 278.086 29.5875 277.344 29.5875 276.602 29.5619 275.834 29.5619 274.887 29.5619 273.965 29.5875 273.018 29.613 272.097 29.613 271.176 29.6386 270.254 29.6898 269.256 29.741 268.258 29.7922 267.26 29.8434 266.492 29.8946 265.724 29.9458 264.956 29.997 264.777 30.0226 264.623 30.0482 264.444 30.0482 263.881 30.0993 263.293 30.1505 262.729 30.2017 262.55 30.2273 262.371 30.2529 262.192 30.2785 261.859 30.3041 261.552 30.3297 261.245 30.3553 260.554 30.4321 259.863 30.5089 259.197 30.6112 258.276 30.7136 257.38 30.8416 256.484 30.9696 255.614 31.0975 254.795 31.2255 253.95 31.3535 253.822 31.3791 253.695 31.4047 253.567 31.4303 252.747 31.5582 251.928 31.7118 251.084 31.8654 250.367 31.9934 249.651 32.1469 248.908 32.3005 248.678 32.3517 248.422 32.3773 248.166 32.4541 247.373 32.6076 246.579 32.7868 245.786 32.966 227.358 37.2147 210.363 45.277 195.697 56.2827L90.1701 56.2827 90.1701 72.5353 106.269 72.5353 106.269 88.6856 79.3435 88.6856 79.3435 88.6344 73.0728 88.6344 73.0728 96.7223C73.0216 97.2086 73.0216 97.6693 73.0728 98.1556L73.0728 104.733 80.2905 104.733C80.6488 104.785 80.9816 104.785 81.3655 104.785 81.7238 104.785 82.0822 104.785 82.4405 104.733L239.592 104.733C239.643 104.733 239.694 104.733 239.745 104.733 239.771 104.759 239.797 104.733 239.822 104.759L239.873 104.759C239.925 104.785 239.976 104.785 240.027 104.81L240.053 104.81C240.181 104.861 240.283 104.913 240.385 105.015 240.462 105.066 240.539 105.143 240.59 105.22 240.59 105.22 240.616 105.22 240.616 105.245L240.872 105.245 240.872 183.642C240.872 183.693 240.872 183.77 240.846 183.847 240.795 184.179 240.616 184.435 240.411 184.64 240.385 184.64 240.385 184.64 240.385 184.64 240.283 184.717 240.181 184.794 240.053 184.819L240.027 184.845C239.976 184.87 239.925 184.87 239.873 184.87L239.848 184.896 239.822 184.896C239.771 184.896 239.72 184.896 239.669 184.896 239.643 184.896 239.617 184.922 239.592 184.922L236.725 184.922 236.725 185.485 74.7109 185.485 74.5829 185.459 72.9448 185.459C72.8937 185.459 72.8681 185.485 72.8169 185.485L63.7564 185.485 63.7564 193.573C63.7052 194.084 63.7052 194.622 63.7564 195.108L63.7564 201.635 70.9741 201.635C71.3068 201.661 71.6651 201.686 72.049 201.686 72.3818 201.686 72.7657 201.686 73.124 201.635L106.627 201.635C103.914 205.397 102.328 209.979 102.328 214.944L89.2487 214.944 89.2487 231.094 115.15 231.094C112.489 229.456 110.262 227.178 108.675 224.465 107.063 221.65 106.141 218.399 106.141 214.944 106.141 209.748 108.214 205.065 111.567 201.635 112.233 200.944 112.949 200.304 113.717 199.741 116.891 197.335 120.858 195.927 125.132 195.927 125.414 195.927 125.695 195.953 125.977 195.953 129.944 196.132 133.579 197.514 136.522 199.741 136.778 199.92 137.008 200.099 137.239 200.304 137.751 200.714 138.237 201.174 138.672 201.635 142.05 205.039 144.124 209.748 144.124 214.944 144.124 216.352 143.97 217.708 143.689 219.039 143.253 220.959 142.562 222.776 141.59 224.465 140.489 226.308 139.107 227.997 137.469 229.354 134.167 232.221 129.842 233.935 125.132 233.935 124.774 233.935 124.441 233.935 124.083 233.91L124.083 244.429 110.339 244.429C110.236 244.455 110.108 244.48 110.006 244.48 109.878 244.48 109.75 244.455 109.648 244.429L107.267 244.429 107.267 257.738ZM339.206 214.944 316.401 214.944C316.401 210.056 314.866 205.5 312.255 201.788 308.262 196.158 301.787 192.395 294.416 192.139 294.134 192.139 293.878 192.139 293.597 192.139 286.916 192.139 280.927 195.006 276.755 199.587 273.044 203.631 270.792 209.032 270.792 214.944L147.784 214.944 147.937 214.944C147.937 209.979 146.35 205.397 143.663 201.635L255.614 201.635 255.614 104.733 294.211 104.733C296.898 104.785 299.535 105.117 302.068 105.68 318.987 109.52 331.605 124.672 331.605 142.742L331.605 199.741C335.802 199.741 339.206 203.145 339.206 207.343ZM306.368 228.996C306.138 229.226 305.908 229.405 305.677 229.61 302.452 232.272 298.332 233.884 293.827 233.935 293.827 233.935 293.827 233.935 293.801 233.935L293.597 233.935C286.584 233.935 280.441 230.122 277.165 224.465 277.011 224.209 276.883 223.979 276.755 223.723 275.373 221.087 274.605 218.092 274.605 214.944 274.605 211.77 275.373 208.776 276.755 206.14 279.929 200.074 286.277 195.927 293.597 195.927 294.109 195.927 294.646 195.953 295.132 196.004 302.529 196.593 308.749 201.43 311.308 208.059 312.153 210.184 312.613 212.513 312.613 214.944 312.613 220.498 310.208 225.515 306.368 228.996" fill="#004AAD" fill-rule="evenodd" transform="matrix(-1 0 0 1.00118 1732 835.656)"/><path d="M40.8491 88.5832 24.7501 88.5832 24.7501 104.733 40.8491 104.733 40.8491 88.5832" fill="#004AAD" fill-rule="evenodd" transform="matrix(-1 0 0 1.00118 1732 835.656)"/><path d="M0 137.008 16.1247 137.008 16.1247 120.858 0 120.858 0 137.008" fill="#004AAD" fill-rule="evenodd" transform="matrix(-1 0 0 1.00118 1732 835.656)"/><path d="M31.5326 201.635 47.6573 201.635 47.6573 185.485 31.5326 185.485 31.5326 201.635" fill="#004AAD" fill-rule="evenodd" transform="matrix(-1 0 0 1.00118 1732 835.656)"/><path d="M134.628 214.944C134.628 209.697 130.379 205.449 125.132 205.449 119.885 205.449 115.637 209.697 115.637 214.944 115.637 220.191 119.885 224.44 125.132 224.44 130.379 224.44 134.628 220.191 134.628 214.944" fill="#004AAD" fill-rule="evenodd" transform="matrix(-1 0 0 1.00118 1732 835.656)"/><path d="M74.071 72.433 74.071 56.2827 72.6889 56.2827 72.305 56.3339 63.7564 56.3339 63.7564 56.3851 57.9464 56.3851 57.9464 72.5353 74.071 72.5353 74.071 72.433" fill="#004AAD" fill-rule="evenodd" transform="matrix(-1 0 0 1.00118 1732 835.656)"/><path d="M32.2237 137.008 70.7693 137.008 70.7693 120.909 32.2237 120.909 32.2237 137.008" fill="#004AAD" fill-rule="evenodd" transform="matrix(-1 0 0 1.00118 1732 835.656)"/><path d="M300.149 116.942C299.586 116.814 299.048 116.686 298.485 116.584 296.924 116.302 295.286 116.149 293.597 116.149L267.004 116.149 267.004 156.998 320.215 156.998 320.215 142.742C320.215 135.396 317.221 128.741 312.409 123.929 309.081 120.602 304.858 118.145 300.149 116.942" fill="#004AAD" fill-rule="evenodd" transform="matrix(-1 0 0 1.00118 1732 835.656)"/><path d="M297.564 206.293C296.668 205.884 295.695 205.628 294.697 205.5 294.672 205.5 294.672 205.5 294.646 205.5 294.441 205.474 294.236 205.474 294.032 205.474 293.878 205.449 293.75 205.449 293.597 205.449 288.35 205.449 284.101 209.697 284.101 214.944 284.101 220.191 288.35 224.44 293.597 224.44 297.103 224.44 300.123 222.571 301.787 219.782 302.632 218.348 303.118 216.71 303.118 214.944 303.118 211.105 300.84 207.803 297.564 206.293" fill="#004AAD" fill-rule="evenodd" transform="matrix(-1 0 0 1.00118 1732 835.656)"/><path d="M56.9226 231.094 73.0728 231.094 73.0728 214.944 56.9226 214.944 56.9226 231.094" fill="#004AAD" fill-rule="evenodd" transform="matrix(-1 0 0 1.00118 1732 835.656)"/><path d="M86.894 169.334 86.894 153.235 54.6191 153.235 54.6191 169.386 86.894 169.386 86.894 169.334" fill="#004AAD" fill-rule="evenodd" transform="matrix(-1 0 0 1.00118 1732 835.656)"/><g><path d="M439 163.141C439 118.478 420.981 77.987 391.829 48.4763L391.931 48.4763 389.781 46.4544 388.323 45.0722C387.401 44.1508 386.454 43.2806 385.482 42.4104 385.482 42.4104 385.456 42.3848 385.43 42.3848 383.971 41.0539 382.513 39.7485 381.002 38.4944 376.523 34.6808 371.84 31.1487 367.002 27.8726 365.415 26.7976 363.777 25.7483 362.165 24.7245 362.114 24.6989 362.088 24.6733 362.062 24.6733 359.631 23.1376 357.174 21.7043 354.666 20.2966 349.7 17.558 344.607 15.0753 339.385 12.8741 339.36 12.8485 339.309 12.8229 339.283 12.7973 337.568 12.0807 335.828 11.3896 334.087 10.7242 333.217 10.3914 332.321 10.0587 331.426 9.72598 331.374 9.70039 331.349 9.70039 331.323 9.67479 329.557 9.03492 327.766 8.44624 325.974 7.85757 324.131 7.26889 322.288 6.70581 320.445 6.19391 319.806 5.98915 319.166 5.80999 318.526 5.65642 317.86 5.47727 317.221 5.2981 316.555 5.11894 315.915 4.96537 315.275 4.78621 314.61 4.63264 310.796 3.71123 306.931 2.91779 303.041 2.25233 302.632 2.17555 302.222 2.12436 301.812 2.04757 301.429 1.99639 301.045 1.9196 300.661 1.86841 299.97 1.76603 299.304 1.66365 298.613 1.56127 298.178 1.51009 297.743 1.4333 297.282 1.38212 296.642 1.30533 296.003 1.22854 295.363 1.15176 294.723 1.07497 294.083 0.998194 293.417 0.921409 292.701 0.844623 291.984 0.767844 291.242 0.716651 290.679 0.639867 290.116 0.588678 289.553 0.563083 288.119 0.435109 286.712 0.332731 285.278 0.255947 284.766 0.230352 284.229 0.204757 283.691 0.179163 283.052 0.153568 282.386 0.102379 281.721 0.102379 281.081 0.0511894 280.441 0.0511894 279.775 0.0255947 278.47 0 277.139-0.0255947 275.834-0.0255947 274.836-0.0255947 273.812 0 272.814 0.0255947 272.635 0.0255947 272.507 0.0255947 272.353 0.0255947 271.406 0.0511894 270.485 0.0511894 269.538 0.102379 269.384 0.102379 269.23 0.102379 269.077 0.127973 268.181 0.153568 267.26 0.204757 266.364 0.255947 266.159 0.281542 265.98 0.281542 265.801 0.281542 264.956 0.332731 264.112 0.383921 263.293 0.460704 262.934 0.486299 262.55 0.511894 262.192 0.537488 261.578 0.588678 261.015 0.639867 260.426 0.716651 259.991 0.742244 259.581 0.793437 259.172 0.81903 258.506 0.895816 257.815 0.972601 257.124 1.04938 256.459 1.12617 255.768 1.20295 255.077 1.27973 254.411 1.38212 253.72 1.4589 253.055 1.56127 233.091 4.3255 213.972 10.7754 196.388 20.6549 195.825 20.962 195.236 21.2948 194.673 21.6275 193.573 22.2674 192.472 22.9328 191.371 23.5983 190.194 24.315 189.017 25.0572 187.839 25.7994 187.404 26.081 186.995 26.3369 186.56 26.6441 185.843 27.0792 185.152 27.5655 184.461 28.0518 184.359 28.103 184.282 28.1542 184.205 28.2053L163.038 35.423 199.664 35.423 200.125 35.1415C200.841 34.7064 201.558 34.2969 202.275 33.8874 203.631 33.0939 204.988 32.3517 206.396 31.6094 207.24 31.1487 208.11 30.7136 208.981 30.2785 210.209 29.6386 211.438 29.05 212.666 28.4869 213.588 28.0518 214.509 27.6167 215.456 27.2072 215.584 27.1304 215.738 27.0536 215.891 27.0024 216.736 26.6441 217.555 26.2601 218.399 25.9274 219.321 25.5179 220.268 25.1596 221.189 24.7757 221.24 24.7501 221.266 24.7501 221.317 24.7245 222.29 24.3405 223.262 23.9822 224.235 23.5983 225.233 23.24 226.206 22.9072 227.204 22.5489 233.116 20.5013 239.157 18.8377 245.299 17.5324 245.299 17.5324 245.325 17.5324 245.351 17.5324 247.245 17.1228 249.164 16.7645 251.084 16.4574 251.391 16.3806 251.698 16.3294 252.031 16.2782 252.875 16.1502 253.746 16.0223 254.642 15.8943 254.744 15.8687 254.872 15.8431 254.974 15.8431 255.921 15.7151 256.843 15.5872 257.764 15.4848 258.813 15.3568 259.863 15.2288 260.912 15.1265 261.731 15.0497 262.55 14.9729 263.395 14.8961 264.956 14.7681 266.543 14.6658 268.13 14.5634 268.872 14.5378 269.589 14.5122 270.331 14.4866 270.792 14.461 271.252 14.4354 271.713 14.4354 272.302 14.4098 272.916 14.4098 273.505 14.3842 274.273 14.3842 275.04 14.3842 275.834 14.3842 276.909 14.3842 277.984 14.3842 279.033 14.4098 280.083 14.4354 281.106 14.461 282.156 14.5122 282.233 14.5122 282.309 14.5122 282.412 14.5122 283.461 14.5634 284.485 14.6146 285.509 14.6914 286.558 14.7681 287.582 14.8449 288.631 14.9217 315.019 17.2252 340.512 26.5929 362.114 42.0009 363.009 42.6407 363.905 43.3062 364.801 43.9717 364.852 44.0229 364.878 44.0484 364.929 44.074 366.644 45.3538 368.307 46.6591 369.971 48.0412L370.509 48.4763 370.534 48.4763C403.551 75.7859 424.616 117.044 424.616 163.141 424.616 217.35 395.489 264.854 352.055 290.884L352.029 290.884 351.543 291.14C345.656 294.646 339.539 297.717 333.268 300.354 329.25 302.043 325.206 303.553 321.06 304.858 319.294 305.421 317.528 305.959 315.736 306.471 313.458 307.085 311.18 307.674 308.877 308.211 308.672 308.237 308.493 308.288 308.314 308.339 307.776 308.442 307.264 308.569 306.727 308.672 305.575 308.928 304.449 309.158 303.271 309.363 303.22 309.363 303.143 309.389 303.067 309.389 301.992 309.619 300.891 309.798 299.816 309.977 298.434 310.182 297.077 310.387 295.721 310.591 294.083 310.796 292.419 310.975 290.781 311.155 289.962 311.231 289.143 311.334 288.299 311.385 286.712 311.513 285.125 311.641 283.538 311.718 282.821 311.743 282.079 311.769 281.362 311.82 280.876 311.82 280.441 311.846 279.955 311.846 279.366 311.871 278.777 311.871 278.189 311.897 277.395 311.897 276.627 311.897 275.834 311.897 274.759 311.897 273.71 311.897 272.635 311.871 271.585 311.846 270.561 311.82 269.512 311.769 269.435 311.769 269.358 311.769 269.282 311.769 268.232 311.718 267.183 311.666 266.159 311.59 265.11 311.513 264.086 311.436 263.062 311.359 238.978 309.261 215.686 301.275 195.39 288.222 194.008 287.326 192.651 286.43 191.295 285.483 189.785 284.434 188.326 283.384 186.892 282.309 186.841 282.284 186.79 282.258 186.764 282.207 185.894 281.567 185.05 280.927 184.205 280.262 183.36 279.596 182.541 278.931 181.697 278.265 181.518 278.112 181.338 277.958 181.159 277.805L144.559 277.805 168.541 285.969 168.567 285.969C169.258 286.584 169.949 287.198 170.665 287.787 172.662 289.476 174.684 291.114 176.757 292.701 177.704 293.417 178.651 294.134 179.598 294.825 180.212 295.286 180.852 295.721 181.466 296.182 183.642 297.717 185.843 299.202 188.07 300.661 190.245 302.043 192.446 303.399 194.699 304.679 202.735 309.286 211.131 313.228 219.807 316.401 220.421 316.632 221.061 316.837 221.676 317.067 222.367 317.297 223.058 317.553 223.774 317.784 224.798 318.142 225.822 318.475 226.846 318.782 227.153 318.884 227.434 318.961 227.716 319.063 228.893 319.422 230.045 319.754 231.222 320.113 233.807 320.829 236.418 321.52 239.029 322.109 242.97 323.03 246.989 323.798 251.033 324.413 251.698 324.515 252.364 324.617 253.055 324.72 253.669 324.797 254.283 324.873 254.897 324.95 255.358 325.027 255.844 325.078 256.305 325.129 256.971 325.232 257.61 325.283 258.25 325.36 259.325 325.488 260.4 325.564 261.501 325.667 262.115 325.718 262.704 325.769 263.293 325.82 264.316 325.897 265.366 325.974 266.389 326.025 266.927 326.051 267.439 326.102 267.976 326.102 268.642 326.153 269.282 326.179 269.947 326.179 271.201 326.23 272.455 326.281 273.735 326.281 274.426 326.307 275.143 326.307 275.834 326.307 276.858 326.307 277.856 326.281 278.88 326.281 279.033 326.281 279.187 326.281 279.34 326.255 280.287 326.23 281.209 326.23 282.13 326.179 282.309 326.179 282.437 326.179 282.591 326.153 283.512 326.127 284.408 326.076 285.33 326.025 285.509 326.025 285.688 326.025 285.867 325.999 286.712 325.948 287.556 325.897 288.375 325.82 288.759 325.795 289.143 325.769 289.501 325.744 290.09 325.692 290.679 325.641 291.267 325.564 291.677 325.539 292.087 325.488 292.496 325.462 293.187 325.385 293.853 325.308 294.544 325.232 295.235 325.155 295.926 325.078 296.591 324.976 298.562 324.745 300.507 324.464 302.427 324.131 318.321 321.546 333.652 316.632 348.036 309.44 348.088 309.44 348.139 309.414 348.19 309.389 349.854 308.544 351.543 307.674 353.207 306.778 353.77 306.471 354.333 306.164 354.896 305.831 355.766 305.37 356.611 304.884 357.455 304.372 358.402 303.834 359.375 303.271 360.296 302.683 360.885 302.35 361.474 301.992 362.062 301.608 362.856 301.096 363.675 300.584 364.468 300.072 364.494 300.072 364.519 300.046 364.545 300.021 365.364 299.483 366.183 298.946 367.002 298.408 367.079 298.357 367.156 298.28 367.233 298.229 368.128 297.615 369.024 297.001 369.92 296.386 370.816 295.747 371.686 295.107 372.582 294.441L373.708 293.622 377.419 290.884 377.24 290.884C414.864 260.963 439 214.816 439 163.141" fill="#333333" fill-rule="evenodd" transform="matrix(-1 0 0 1.00118 1732 835.656)"/></g></g></g></g></g></svg>